<svg width="246" height="70" viewBox="0 0 246 70" fill="none" xmlns="http://www.w3.org/2000/svg">
<path d="M0.343508 29.5758V29.6088L0.336292 29.6521C0.327008 29.7119 0.317723 29.7728 0.30947 29.8336V29.844C0.30947 29.8553 0.30947 29.8677 0.30947 29.879C0.30947 29.9151 0.299155 29.9502 0.295028 29.9822L0.280587 30.0771V30.0936V30.1215V30.1359V30.1503V30.1576V30.1864V30.2081V30.2225C0.266145 30.337 0.250672 30.4536 0.23623 30.5712C0.221789 30.6888 0.212501 30.7775 0.200122 30.8807C0.200122 30.9209 0.190838 30.9601 0.186711 31.0003V31.0117C0.17227 31.1375 0.158866 31.2665 0.145456 31.3923C0.136172 31.4862 0.12895 31.5832 0.118635 31.6791V31.6884L0.109348 31.7833C0.109348 31.8204 0.103156 31.8586 0.100061 31.8957C0.0969664 31.9329 0.0928459 31.9752 0.0897512 32.0154C0.0897512 32.036 0.0897512 32.0566 0.0897512 32.0773C0.0897512 32.0979 0.0845901 32.1381 0.0814954 32.1691L0.0742785 32.2836V32.3372C0.0629314 32.4672 0.0536469 32.6034 0.046426 32.7591V32.7684C0.046426 32.8344 0.0392029 32.9015 0.0361083 32.9675C0.0330136 33.0335 0.0278536 33.1068 0.0257905 33.1738V33.2017C0.0257905 33.2099 0.0257905 33.2171 0.0257905 33.2244C0.0257905 33.2316 0.0257905 33.2553 0.0257905 33.2718V33.2966V33.3182C0.0257905 33.3966 0.0185747 33.475 0.0165116 33.5534C0.0165116 33.5864 0.0165116 33.6195 0.0165116 33.6566C0.0113538 33.8 0.00722593 33.9341 0.00516282 34.0692C0.00516282 34.0898 0.00516282 34.1125 0.00516282 34.1352V34.1982C0.00516282 34.3116 0 34.422 0 34.5355V34.7418C0 34.7758 0 34.8099 0 34.8449C0 34.88 0 34.8934 0 34.9182C0 34.9429 0 34.9667 0 34.9904C0 35.0141 0 35.0574 0 35.0936V35.205V35.2988C0.0999551 41.9227 2.80137 48.2415 7.52081 52.8905C12.2402 57.5395 18.599 60.1456 25.2236 60.1459C26.2775 60.1445 27.3303 60.078 28.3761 59.9468C28.8475 59.888 29.3168 59.822 29.7831 59.7405C25.0306 56.8572 21.2011 52.6758 18.7454 47.6889C18.6 47.3918 18.4607 47.0926 18.3256 46.7924C18.3112 46.7594 18.2947 46.7274 18.2792 46.6944C16.26 42.1346 15.4491 37.1315 15.9246 32.1673C16.4001 27.2031 18.1461 22.445 20.9942 18.3514C21.7712 17.2388 22.6246 16.1817 23.5484 15.1876C28.0524 10.3435 34.0762 7.18353 40.6217 6.23125C47.1673 5.27896 53.8418 6.59151 59.5394 9.95143C59.5374 9.94861 59.535 9.94616 59.5322 9.9442L59.4084 9.82248C59.3537 9.76884 59.297 9.71933 59.2413 9.66259L59.1897 9.61307L59.1763 9.60173V9.59657L59.168 9.58728C59.1206 9.5419 59.0649 9.49238 59.0153 9.44493C58.9658 9.39748 58.9122 9.34178 58.8534 9.29329L58.8472 9.28607L58.842 9.27988L58.8286 9.26853L58.8008 9.24274C58.7389 9.18395 58.678 9.12824 58.6161 9.07254L58.6048 9.0612L58.5233 8.98796L58.4831 8.95185C58.3933 8.87035 58.3046 8.78989 58.2169 8.71149C58.1292 8.63309 58.0168 8.53613 57.9198 8.45154L57.8239 8.37005C57.7568 8.31228 57.6908 8.25451 57.6176 8.19675L57.4814 8.08327L57.4082 8.02138L57.3535 7.97703L57.3256 7.9533C57.2442 7.88522 57.1668 7.82126 57.0884 7.75937L57.077 7.74905H57.0719L57.0647 7.74287L57.0554 7.73564C56.9966 7.68613 56.9368 7.63971 56.878 7.59226L56.8728 7.5871C56.684 7.43443 56.486 7.27763 56.2889 7.12909H56.2838C56.2312 7.0868 56.1806 7.04759 56.1239 7.00633L56.0589 6.95682L56.0197 6.92691L55.9929 6.90627L55.9846 6.90008L55.9774 6.89493H55.9723L55.9619 6.88873L55.8516 6.80621L55.8113 6.77629L55.6607 6.66488L55.6133 6.63085L55.5277 6.56895L55.4678 6.52563C55.409 6.48127 55.3492 6.44001 55.2894 6.39772L55.2471 6.36677L55.2306 6.35542L55.2151 6.34407L54.7777 6.0346H54.7715C54.7055 5.98921 54.6405 5.94383 54.5735 5.89947L54.526 5.86647H54.5209C54.4177 5.80251 54.3238 5.73649 54.2238 5.6715L54.2073 5.66118L54.2 5.65603L54.1907 5.65087L54.1278 5.60961L53.9143 5.47138L53.903 5.46416L53.8926 5.45693C53.7895 5.38679 53.6791 5.32077 53.5698 5.25063L53.5584 5.24443L53.544 5.23515C53.4346 5.16501 53.3232 5.09589 53.2108 5.02884L53.0344 4.92568L52.9529 4.8772L52.8497 4.81634H52.8425L52.7806 4.78023L52.5392 4.64097L52.4794 4.60487L52.3969 4.55742C52.3226 4.51409 52.2483 4.47076 52.1741 4.4295L52.1524 4.41816C51.6562 4.14067 51.1497 3.8735 50.6401 3.61973L50.6061 3.6022H50.6009L50.5896 3.59704C50.4782 3.53824 50.3657 3.48357 50.2502 3.43096L49.95 3.28757L49.9232 3.27519L49.9057 3.26694H49.8984H49.8912C49.5364 3.0988 49.2114 2.95747 48.8968 2.82028H48.8885H48.8813H48.8741H48.8659C48.7906 2.78623 48.7153 2.75426 48.6379 2.71712L48.6059 2.70474L48.5832 2.69442L48.447 2.63769L48.3016 2.57889L48.2335 2.55104C47.8962 2.41487 47.6146 2.30553 47.365 2.21166L47.2123 2.15493L47.1916 2.1477L47.0318 2.08787C46.6047 1.93314 46.1591 1.77841 45.7124 1.63915H45.7072H45.7021L45.6804 1.63192C45.5958 1.60407 45.5102 1.57829 45.4256 1.5525L45.1636 1.47203L45.0078 1.42458C44.8139 1.36785 44.6293 1.31524 44.4518 1.26572H44.4405H44.4343L44.3621 1.24612L44.2465 1.21517L44.2228 1.20796L44.1888 1.19764C43.8205 1.09448 43.445 1.0099 43.0685 0.923247C42.8467 0.87167 42.626 0.820087 42.4021 0.774698C42.0266 0.695268 41.6512 0.614806 41.2674 0.546724C41.1261 0.521966 40.9868 0.497209 40.8455 0.474515H40.8383H40.829C40.6897 0.449758 40.5484 0.427069 40.4071 0.406438L40.2111 0.377555L39.9656 0.340415C39.5626 0.284711 39.1579 0.235543 38.7514 0.192905C37.9675 0.111412 37.1773 0.0567366 36.3871 0.0268215C35.9477 0.0103166 35.5072 0 35.0678 0C34.3271 0 33.5844 0.0268196 32.8437 0.0732396C32.7653 0.0732396 32.688 0.0804616 32.6096 0.0856194C31.7915 0.142355 30.9756 0.226945 30.1689 0.339385L29.7356 0.403337H29.7243L0.346609 29.5613L0.343508 29.5758Z" fill="white" style="mix-blend-mode:color"/>
<path d="M69.5579 40.2163V40.1894V40.1616C69.5651 40.1121 69.5723 40.0584 69.5785 40.013V40.0017V39.9831V39.9625C69.5878 39.8985 69.5991 39.8325 69.6064 39.7686V39.7252L69.6136 39.6819C69.6136 39.6613 69.6187 39.6407 69.6229 39.6221L69.6497 39.4034L69.6703 39.2528C69.6889 39.1073 69.7044 38.9722 69.7198 38.8402V38.8216C69.7353 38.6916 69.7477 38.5689 69.759 38.4451C69.7694 38.3419 69.7797 38.2388 69.7869 38.147V38.1418L69.7962 38.0469C69.8034 37.9778 69.8096 37.9097 69.8137 37.8406V37.8138V37.7869C69.823 37.6982 69.8292 37.6095 69.8343 37.5218V37.5084V37.4857C69.8457 37.3578 69.855 37.2227 69.8622 37.0731V37.0638C69.8715 36.9266 69.8787 36.7925 69.8869 36.6605V36.6213V36.5666V36.5119C69.8942 36.4005 69.8983 36.2881 69.9024 36.1746C69.9076 36.022 69.9127 35.8775 69.9158 35.7321V35.7135V35.6475C69.9158 35.5443 69.9158 35.4412 69.9158 35.338V35.2194V35.2008C69.9158 35.1101 69.9158 35.0203 69.9158 34.9316C69.9158 34.8429 69.9158 34.7408 69.9158 34.649V34.6417V34.551C69.8169 27.9267 67.1159 21.6073 62.3962 16.9581C57.6765 12.3088 51.3172 9.70312 44.6922 9.70386C43.1631 9.7043 41.6371 9.84239 40.1327 10.1165C46.699 14.0805 51.4278 20.4841 53.2844 27.926C55.141 35.3679 53.9743 43.2423 50.0395 49.8261C46.1048 56.41 39.7223 61.1672 32.2888 63.057C24.8552 64.9467 16.9757 63.8151 10.3744 59.9097L10.3816 59.9169L10.4022 59.9355L10.4208 59.9541C10.4409 59.9759 10.4623 59.9966 10.4848 60.016L10.5549 60.084C10.6117 60.1408 10.6684 60.1954 10.7262 60.2501L10.7354 60.2594L10.7468 60.2697C10.8407 60.3605 10.9531 60.4678 11.0563 60.5668L11.0738 60.5802L11.0882 60.5947C11.1594 60.6627 11.2316 60.7308 11.3049 60.801L11.31 60.8061L11.3172 60.8113C11.4431 60.9278 11.572 61.0423 11.7041 61.1579L11.7123 61.163L11.7195 61.1703L11.9754 61.3962L11.9919 61.4086L12.0486 61.4581H12.0538L12.3024 61.6726L12.3529 61.716L12.3643 61.7273C12.4313 61.784 12.4984 61.8408 12.5706 61.8955L12.5974 61.9161L12.6222 61.9388C12.681 61.9893 12.747 62.0419 12.8202 62.1007L12.845 62.1193L12.8677 62.1379C12.9203 62.1833 12.9708 62.2266 13.0234 62.2637L13.041 62.2771L13.0554 62.2895C13.2421 62.4401 13.4361 62.5907 13.632 62.7403C13.6733 62.7743 13.7166 62.8063 13.7579 62.8434C13.7992 62.8806 13.8538 62.9167 13.9033 62.9528C13.9312 62.9734 13.958 62.992 13.9828 63.0126L14.0302 63.0467L14.2654 63.222L14.3387 63.2746L14.4573 63.3592L14.4717 63.3706L14.4893 63.3819C14.546 63.4252 14.6058 63.4665 14.6646 63.5088L14.7286 63.5542C14.872 63.6574 15.0185 63.7605 15.1649 63.8637L15.1783 63.8709L15.1918 63.8802C15.2557 63.9256 15.3217 63.9689 15.3857 64.0122L15.4352 64.0442L15.5972 64.1473L15.7684 64.2618C15.8551 64.3186 15.9448 64.3784 16.0376 64.4351C16.1305 64.4919 16.2202 64.5517 16.3089 64.6084H16.5318L16.9289 64.987C16.9887 65.0252 17.0517 65.0623 17.1136 65.0984C17.2342 65.1696 17.357 65.2418 17.4787 65.3047L17.4901 65.312L17.5014 65.3192C17.5974 65.3759 17.6933 65.4285 17.7923 65.4832C18.3081 65.7751 18.8321 66.0516 19.3562 66.3085C19.4727 66.3672 19.5883 66.423 19.7028 66.4776L19.7533 66.5044C19.8626 66.555 19.9699 66.6076 20.0793 66.6581C20.4094 66.8118 20.7467 66.9676 21.0758 67.1048H21.083H21.0902L21.3367 67.208C21.3615 67.2172 21.3873 67.2286 21.4162 67.242L21.7463 67.3782C22.0155 67.4875 22.3074 67.601 22.6128 67.7155H22.6231H22.6324C22.7263 67.7516 22.8212 67.7867 22.9171 67.8186H22.9305H22.9418C23.3885 67.9827 23.831 68.1281 24.2571 68.2674L24.2725 68.2725H24.286C24.3726 68.3024 24.4572 68.3293 24.5438 68.3551H24.5573H24.5686C24.6986 68.3963 24.8286 68.4365 24.9585 68.4757L25.0679 68.5077L25.5331 68.6398L25.7735 68.7058H25.792C26.7565 68.9657 27.7386 69.1844 28.7062 69.3557H28.7175H28.7289C28.8454 69.3763 28.9723 69.399 29.1301 69.4258H29.1394H29.1467C29.3034 69.4526 29.4324 69.4733 29.5521 69.4898H29.5706H29.5892C29.7254 69.5125 29.8626 69.531 30.0018 69.5496H30.0132C33.2641 70.002 36.562 70.002 39.8129 69.5496L39.847 69.5444C39.977 69.5259 40.1049 69.5083 40.2338 69.4877H40.2524H40.2658L69.5197 40.2348C69.5579 40.2493 69.5579 40.2379 69.5579 40.2163Z" fill="white" style="mix-blend-mode:color"/>
<path d="M232.322 12.1123H236.25L245.088 34.8746H241.546L238.951 27.9653H229.2L226.64 34.8746H223.273L232.322 12.1123ZM238.109 25.6154L234.251 15.339H233.935L230.077 25.6154H238.109Z" fill="white" style="mix-blend-mode:color"/>
<path d="M210.789 14.4973H203.073V12.1123H221.907V14.4973H214.226V34.8746H210.789V14.4973Z" fill="white" style="mix-blend-mode:color"/>
<path d="M195.895 12.1123H199.297V34.8746H195.895V12.1123Z" fill="white" style="mix-blend-mode:color"/>
<path d="M182.485 35.2253C180.544 35.2253 178.23 35.0382 175.541 34.6641V31.8232C178.253 32.4077 180.638 32.7 182.696 32.7C184.426 32.7 185.688 32.513 186.483 32.1388C187.278 31.7413 187.676 31.0165 187.676 29.9643V27.0182C187.676 26.0362 187.395 25.3464 186.834 24.9489C186.273 24.5514 185.291 24.3527 183.888 24.3527H181.222C179.001 24.3527 177.423 23.9084 176.488 23.0199C175.552 22.1314 175.085 20.7518 175.085 18.8813V17.0575C175.085 15.8182 175.354 14.8128 175.891 14.0412C176.453 13.2696 177.376 12.6968 178.662 12.3226C179.972 11.9485 181.76 11.7615 184.028 11.7615C185.548 11.7615 187.501 11.8901 189.885 12.1473V14.7076C187.22 14.3101 185.186 14.1114 183.783 14.1114C181.608 14.1114 180.17 14.3218 179.469 14.7427C178.744 15.1869 178.382 15.9235 178.382 16.9523V19.5477C178.382 20.3427 178.662 20.9272 179.223 21.3013C179.808 21.652 180.802 21.8274 182.205 21.8274H184.94C186.507 21.8274 187.723 22.0145 188.588 22.3886C189.476 22.7627 190.096 23.3355 190.447 24.1071C190.821 24.8554 191.008 25.8725 191.008 27.1585V28.8069C191.008 30.4203 190.704 31.6946 190.096 32.6299C189.511 33.5651 188.599 34.2315 187.36 34.629C186.121 35.0265 184.496 35.2253 182.485 35.2253Z" fill="white" style="mix-blend-mode:color"/>
<path d="M166.645 12.1123H170.047V34.8746H166.645V12.1123Z" fill="white" style="mix-blend-mode:color"/>
<path d="M144.484 12.1123H152.481C154.492 12.1123 156.058 12.2409 157.181 12.4981C158.326 12.7319 159.156 13.1645 159.671 13.7958C160.208 14.4271 160.477 15.3507 160.477 16.5666V20.4947C160.477 21.8509 159.916 22.9031 158.794 23.6513C157.695 24.3761 156.292 24.7386 154.585 24.7386L161.88 34.8746H157.707L151.183 25.1594H147.886V34.8746H144.484V12.1123ZM152.34 22.9148C154.024 22.9148 155.228 22.716 155.953 22.3185C156.701 21.8976 157.075 21.1494 157.075 20.0739V16.9173C157.075 15.2104 155.602 14.357 152.656 14.357H147.886V22.9148H152.34Z" fill="white" style="mix-blend-mode:color"/>
<path d="M129.588 35.2253C123.229 35.2253 120.049 33.1676 120.049 29.0524V18.285C120.049 13.936 123.229 11.7615 129.588 11.7615C136.018 11.7615 139.233 13.9243 139.233 18.25V29.0524C139.233 31.2503 138.345 32.8286 136.568 33.7873C134.791 34.7459 132.464 35.2253 129.588 35.2253ZM129.659 32.9455C133.844 32.9455 135.937 31.6361 135.937 29.0174V18.1798C135.937 15.374 133.832 13.9711 129.623 13.9711C127.589 13.9711 126.023 14.2867 124.924 14.918C123.848 15.5493 123.31 16.6366 123.31 18.1798V29.0174C123.31 31.6361 125.426 32.9455 129.659 32.9455Z" fill="white" style="mix-blend-mode:color"/>
<path d="M90.4705 12.1123H95.556L102.851 31.0517L102.956 31.0868L109.866 12.1123H114.776V34.8746H111.795V15.6196H111.619L104.289 34.8746H101.238L93.6972 15.6196H93.5218V34.8746H90.4705V12.1123Z" fill="white" style="mix-blend-mode:color"/>
<path d="M204.028 51.3858H205.606V52.4205C205.77 51.6138 206.699 51.2104 208.394 51.2104C209.481 51.2104 210.241 51.4092 210.674 51.8067C211.118 52.1925 211.34 52.8063 211.34 53.648V59.8735H209.762V53.7357C209.762 53.5136 209.744 53.3324 209.709 53.1921C209.674 53.0518 209.604 52.9115 209.499 52.7712C209.265 52.4789 208.745 52.3328 207.938 52.3328C207.319 52.3328 206.839 52.3795 206.5 52.4731C206.173 52.5549 205.939 52.6952 205.799 52.8939C205.67 53.0927 205.606 53.3733 205.606 53.7357V59.8735H204.028V51.3858Z" fill="white" style="mix-blend-mode:color"/>
<path d="M197.656 60.0488C196.907 60.0488 196.346 60.0196 195.972 59.9611C195.598 59.9144 195.224 59.8033 194.85 59.6279C194.464 59.4526 194.183 59.172 194.008 58.7862C193.833 58.3887 193.745 57.8568 193.745 57.1904V54.2443C193.745 53.7182 193.809 53.2564 193.938 52.8589C194.066 52.4614 194.236 52.1516 194.446 51.9294C194.622 51.7307 194.885 51.5787 195.235 51.4735C195.598 51.3566 195.966 51.2806 196.34 51.2455C196.761 51.2221 197.2 51.2104 197.656 51.2104C198.263 51.2104 198.719 51.228 199.023 51.2631C199.339 51.2864 199.672 51.3449 200.023 51.4384C200.385 51.5436 200.666 51.7015 200.865 51.9119C201.063 52.1223 201.233 52.4263 201.373 52.8238C201.502 53.233 201.566 53.7065 201.566 54.2443V57.1904C201.566 58.1841 201.338 58.909 200.882 59.3649C200.695 59.552 200.426 59.6981 200.076 59.8033C199.725 59.9085 199.362 59.9787 198.988 60.0138C198.544 60.0371 198.1 60.0488 197.656 60.0488ZM197.656 59.0142C198.147 59.0142 198.503 59.0025 198.725 58.9791C198.947 58.9557 199.164 58.8914 199.374 58.7862C199.585 58.6927 199.731 58.5407 199.812 58.3303C199.906 58.1081 199.953 57.8042 199.953 57.4184V53.9812C199.953 53.4551 199.888 53.0752 199.76 52.8413C199.631 52.5958 199.409 52.438 199.093 52.3679C198.79 52.286 198.31 52.2451 197.656 52.2451C197.001 52.2451 196.516 52.286 196.2 52.3679C195.896 52.438 195.68 52.5958 195.551 52.8413C195.423 53.0752 195.358 53.4551 195.358 53.9812V57.4184C195.358 57.8042 195.399 58.1081 195.481 58.3303C195.575 58.5407 195.726 58.6927 195.937 58.7862C196.147 58.8914 196.364 58.9557 196.586 58.9791C196.808 59.0025 197.164 59.0142 197.656 59.0142Z" fill="white" style="mix-blend-mode:color"/>
<path d="M189.745 48.3169H191.323V49.9653H189.745V48.3169ZM189.745 51.3858H191.323V59.8734H189.745V51.3858Z" fill="white" style="mix-blend-mode:color"/>
<path d="M186.249 60.0489C185.524 60.0489 184.957 59.9729 184.548 59.8209C184.139 59.6572 183.841 59.3883 183.654 59.0142C183.478 58.6284 183.391 58.0906 183.391 57.4008V52.4205H181.497V51.3858H183.391V48.7554H184.987V51.3858H188.02V52.4205H184.987V57.4885C184.987 57.9094 185.033 58.2251 185.127 58.4355C185.232 58.6459 185.407 58.7979 185.653 58.8914C185.91 58.9733 186.278 59.0142 186.758 59.0142C186.91 59.0142 187.331 58.9674 188.02 58.8739V59.9086C187.424 60.0021 186.834 60.0489 186.249 60.0489Z" fill="white" style="mix-blend-mode:color"/>
<path d="M175.866 60.0488C175.059 60.0488 174.434 59.9728 173.99 59.8209C173.557 59.6689 173.241 59.4 173.043 59.0142C172.855 58.6284 172.762 58.0731 172.762 57.3482C172.762 56.7052 172.85 56.2083 173.025 55.8576C173.212 55.4952 173.522 55.238 173.954 55.086C174.399 54.934 175.024 54.858 175.831 54.858H178.374V53.5077C178.374 53.1921 178.309 52.9524 178.181 52.7887C178.064 52.6134 177.859 52.4906 177.567 52.4205C177.286 52.3503 176.871 52.3152 176.322 52.3152C175.445 52.3152 174.475 52.3854 173.411 52.5257V51.3683C174.568 51.2631 175.615 51.2104 176.55 51.2104C177.532 51.2104 178.257 51.2864 178.724 51.4384C179.192 51.5787 179.513 51.8301 179.689 52.1925C179.864 52.5549 179.952 53.1161 179.952 53.876V59.8735H178.426V59.0668C178.298 59.7215 177.444 60.0488 175.866 60.0488ZM176.129 59.0142C176.702 59.0142 177.187 58.9733 177.584 58.8914C178.111 58.7862 178.374 58.5407 178.374 58.1549V55.8401H175.936C175.433 55.8401 175.071 55.881 174.849 55.9628C174.627 56.033 174.481 56.1733 174.41 56.3837C174.34 56.5941 174.305 56.9332 174.305 57.4008C174.305 57.8217 174.346 58.149 174.428 58.3829C174.51 58.605 174.656 58.7687 174.866 58.8739C175.077 58.9674 175.392 59.0142 175.813 59.0142H176.129Z" fill="white" style="mix-blend-mode:color"/>
<path d="M167.105 51.3858H168.596V52.7712C168.596 52.5023 168.712 52.2509 168.946 52.0171C169.18 51.7716 169.478 51.5787 169.841 51.4384C170.203 51.2864 170.56 51.2104 170.91 51.2104H171.682V52.5608H170.805C170.057 52.5608 169.513 52.6601 169.174 52.8589C168.847 53.0459 168.683 53.3908 168.683 53.8935V59.8735H167.105V51.3858Z" fill="white" style="mix-blend-mode:color"/>
<path d="M160.733 60.0488C159.985 60.0488 159.424 60.0196 159.049 59.9611C158.675 59.9144 158.301 59.8033 157.927 59.6279C157.541 59.4526 157.261 59.172 157.085 58.7862C156.91 58.3887 156.822 57.8568 156.822 57.1904V54.2443C156.822 53.7182 156.887 53.2564 157.015 52.8589C157.144 52.4614 157.313 52.1516 157.524 51.9294C157.699 51.7307 157.962 51.5787 158.313 51.4735C158.675 51.3566 159.044 51.2806 159.418 51.2455C159.839 51.2221 160.277 51.2104 160.733 51.2104C161.341 51.2104 161.797 51.228 162.101 51.2631C162.416 51.2864 162.75 51.3449 163.1 51.4384C163.463 51.5436 163.743 51.7015 163.942 51.9119C164.141 52.1223 164.31 52.4263 164.451 52.8238C164.579 53.233 164.644 53.7065 164.644 54.2443V57.1904C164.644 58.1841 164.416 58.909 163.96 59.3649C163.773 59.552 163.504 59.6981 163.153 59.8033C162.802 59.9085 162.44 59.9787 162.066 60.0138C161.621 60.0371 161.177 60.0488 160.733 60.0488ZM160.733 59.0142C161.224 59.0142 161.58 59.0025 161.803 58.9791C162.025 58.9557 162.241 58.8914 162.451 58.7862C162.662 58.6927 162.808 58.5407 162.89 58.3303C162.983 58.1081 163.03 57.8042 163.03 57.4184V53.9812C163.03 53.4551 162.966 53.0752 162.837 52.8413C162.709 52.5958 162.487 52.438 162.171 52.3679C161.867 52.286 161.388 52.2451 160.733 52.2451C160.078 52.2451 159.593 52.286 159.277 52.3679C158.973 52.438 158.757 52.5958 158.629 52.8413C158.5 53.0752 158.436 53.4551 158.436 53.9812V57.4184C158.436 57.8042 158.477 58.1081 158.558 58.3303C158.652 58.5407 158.804 58.6927 159.014 58.7862C159.225 58.8914 159.441 58.9557 159.663 58.9791C159.885 59.0025 160.242 59.0142 160.733 59.0142Z" fill="white" style="mix-blend-mode:color"/>
<path d="M146.983 51.3858H148.543V52.2977H148.561C148.69 51.5729 149.654 51.2104 151.454 51.2104C152.53 51.2104 153.343 51.4384 153.892 51.8944C154.442 52.3386 154.716 52.9115 154.716 53.6129V57.1027C154.716 57.6054 154.64 58.0438 154.488 58.4179C154.348 58.792 154.161 59.0843 153.927 59.2948C153.717 59.4935 153.424 59.6513 153.05 59.7682C152.688 59.8852 152.325 59.9611 151.963 59.9962C151.636 60.0313 151.238 60.0488 150.771 60.0488C150.256 60.0488 149.783 59.9904 149.35 59.8735C148.929 59.7449 148.666 59.5636 148.561 59.3298V63.521H146.983V51.3858ZM150.806 58.9791C151.414 58.9791 151.875 58.9382 152.191 58.8563C152.518 58.7628 152.752 58.5991 152.892 58.3653C153.033 58.1315 153.103 57.7749 153.103 57.2956V54.1741C153.103 53.648 153.033 53.2564 152.892 52.9992C152.752 52.742 152.518 52.5724 152.191 52.4906C151.875 52.3971 151.408 52.3503 150.788 52.3503C150.168 52.3503 149.707 52.3971 149.403 52.4906C149.099 52.5724 148.882 52.742 148.754 52.9992C148.625 53.2447 148.561 53.6363 148.561 54.1741V57.2956C148.561 57.7749 148.625 58.1315 148.754 58.3653C148.894 58.5991 149.122 58.7628 149.438 58.8563C149.753 58.9382 150.209 58.9791 150.806 58.9791Z" fill="white" style="mix-blend-mode:color"/>
<path d="M140.835 51.3858H142.325V52.7712C142.325 52.5023 142.442 52.2509 142.676 52.0171C142.91 51.7716 143.208 51.5787 143.57 51.4384C143.933 51.2864 144.289 51.2104 144.64 51.2104H145.412V52.5608H144.535C143.787 52.5608 143.243 52.6601 142.904 52.8589C142.577 53.0459 142.413 53.3908 142.413 53.8935V59.8735H140.835V51.3858Z" fill="white" style="mix-blend-mode:color"/>
<path d="M134.463 60.0488C133.714 60.0488 133.153 60.0196 132.779 59.9611C132.405 59.9144 132.031 59.8033 131.657 59.6279C131.271 59.4526 130.99 59.172 130.815 58.7862C130.64 58.3887 130.552 57.8568 130.552 57.1904V54.2443C130.552 53.7182 130.616 53.2564 130.745 52.8589C130.874 52.4614 131.043 52.1516 131.253 51.9294C131.429 51.7307 131.692 51.5787 132.043 51.4735C132.405 51.3566 132.773 51.2806 133.147 51.2455C133.568 51.2221 134.007 51.2104 134.463 51.2104C135.071 51.2104 135.527 51.228 135.83 51.2631C136.146 51.2864 136.479 51.3449 136.83 51.4384C137.192 51.5436 137.473 51.7015 137.672 51.9119C137.871 52.1223 138.04 52.4263 138.18 52.8238C138.309 53.233 138.373 53.7065 138.373 54.2443V57.1904C138.373 58.1841 138.145 58.909 137.689 59.3649C137.502 59.552 137.233 59.6981 136.883 59.8033C136.532 59.9085 136.17 59.9787 135.795 60.0138C135.351 60.0371 134.907 60.0488 134.463 60.0488ZM134.463 59.0142C134.954 59.0142 135.31 59.0025 135.532 58.9791C135.754 58.9557 135.971 58.8914 136.181 58.7862C136.392 58.6927 136.538 58.5407 136.62 58.3303C136.713 58.1081 136.76 57.8042 136.76 57.4184V53.9812C136.76 53.4551 136.696 53.0752 136.567 52.8413C136.438 52.5958 136.216 52.438 135.901 52.3679C135.597 52.286 135.117 52.2451 134.463 52.2451C133.808 52.2451 133.323 52.286 133.007 52.3679C132.703 52.438 132.487 52.5958 132.358 52.8413C132.23 53.0752 132.165 53.4551 132.165 53.9812V57.4184C132.165 57.8042 132.206 58.1081 132.288 58.3303C132.382 58.5407 132.534 58.6927 132.744 58.7862C132.954 58.8914 133.171 58.9557 133.393 58.9791C133.615 59.0025 133.972 59.0142 134.463 59.0142Z" fill="white" style="mix-blend-mode:color"/>
<path d="M125.511 60.049C122.319 60.049 120.724 59.0202 120.724 56.9626V51.5613C120.724 49.3868 122.319 48.2996 125.511 48.2996C126.598 48.2996 127.639 48.4106 128.633 48.6328V49.8954C127.51 49.6148 126.481 49.4745 125.546 49.4745C125.09 49.4745 124.693 49.5037 124.354 49.5622C124.015 49.6089 123.687 49.6966 123.372 49.8252C122.694 50.1175 122.355 50.6904 122.355 51.5438V56.8749C122.355 58.1843 123.442 58.839 125.616 58.839C126.552 58.839 127.58 58.6987 128.703 58.4181V59.7158C127.709 59.9379 126.645 60.049 125.511 60.049Z" fill="white" style="mix-blend-mode:color"/>
</svg>
