<svg width="160" height="48" viewBox="0 0 160 48" fill="none" xmlns="http://www.w3.org/2000/svg">
<path d="M0.222816 20.2512V20.2726L0.218135 20.3007C0.212113 20.3395 0.20609 20.379 0.200737 20.4185V20.4251C0.200737 20.4325 0.200737 20.4405 0.200737 20.4479C0.200737 20.4713 0.194046 20.4941 0.19137 20.5148L0.182002 20.5764V20.5871V20.6051V20.6145V20.6239V20.6286V20.6473V20.6613V20.6707C0.172634 20.745 0.162598 20.8206 0.153231 20.8969C0.143863 20.9731 0.137838 21.0307 0.129809 21.0976C0.129809 21.1237 0.123787 21.1491 0.12111 21.1752V21.1826C0.111742 21.2642 0.103048 21.3479 0.0943499 21.4295C0.0883278 21.4904 0.0836433 21.5533 0.0769522 21.6155V21.6215L0.0709283 21.6831C0.0709283 21.7072 0.0669118 21.7319 0.0649045 21.756C0.0628971 21.7801 0.0602243 21.8075 0.058217 21.8336C0.058217 21.847 0.058217 21.8604 0.058217 21.8738C0.058217 21.8872 0.0548692 21.9133 0.0528619 21.9333L0.0481806 22.0076V22.0424C0.0408203 22.1267 0.034798 22.215 0.0301142 22.3161V22.3221C0.0301142 22.3649 0.0254289 22.4084 0.0234216 22.4512C0.0214142 22.4941 0.0180672 22.5416 0.016729 22.5851V22.6031C0.016729 22.6085 0.016729 22.6132 0.016729 22.6178C0.016729 22.6225 0.016729 22.6379 0.016729 22.6486V22.6647V22.6787C0.016729 22.7296 0.0120484 22.7804 0.0107102 22.8313C0.0107102 22.8527 0.0107102 22.8741 0.0107102 22.8982C0.00736462 22.9912 0.00468709 23.0782 0.00334885 23.1658C0.00334885 23.1792 0.00334885 23.1939 0.00334885 23.2087V23.2495C0.00334885 23.3231 0 23.3947 0 23.4683V23.6021C0 23.6242 0 23.6463 0 23.669C0 23.6918 0 23.7005 0 23.7165C0 23.7326 0 23.748 0 23.7634C0 23.7788 0 23.8069 0 23.8303V23.9025V23.9634C0.0648357 28.26 1.8171 32.3587 4.87836 35.3743C7.93962 38.3898 12.0642 40.0803 16.3613 40.0805C17.0449 40.0796 17.7278 40.0364 18.4061 39.9513C18.7119 39.9132 19.0163 39.8704 19.3188 39.8175C16.2361 37.9472 13.752 35.235 12.1592 32.0002C12.0649 31.8075 11.9745 31.6135 11.8869 31.4187C11.8775 31.3973 11.8668 31.3766 11.8568 31.3552C10.547 28.3974 10.021 25.1522 10.3295 21.9322C10.6379 18.7122 11.7704 15.6258 13.6179 12.9705C14.1219 12.2488 14.6754 11.5631 15.2746 10.9183C18.1961 7.77619 22.1035 5.72649 26.3492 5.10878C30.595 4.49108 34.9244 5.34247 38.6201 7.52187C38.6189 7.52005 38.6173 7.51846 38.6154 7.51719L38.5351 7.43824C38.4997 7.40344 38.4629 7.37132 38.4268 7.33452L38.3933 7.3024L38.3846 7.29504V7.2917L38.3792 7.28567C38.3485 7.25623 38.3123 7.22411 38.2802 7.19334C38.2481 7.16256 38.2133 7.12643 38.1752 7.09498L38.1711 7.09029L38.1678 7.08628L38.1591 7.07892L38.141 7.06219C38.1009 7.02405 38.0614 6.98792 38.0213 6.95178L38.0139 6.94443L37.961 6.89692L37.9349 6.8735C37.8767 6.82064 37.8192 6.76845 37.7623 6.71759C37.7054 6.66674 37.6325 6.60384 37.5696 6.54898L37.5074 6.49611C37.4639 6.45864 37.4211 6.42117 37.3736 6.3837L37.2852 6.3101L37.2377 6.26995L37.2023 6.24118L37.1842 6.22579C37.1313 6.18163 37.0812 6.14015 37.0303 6.1L37.0229 6.09331H37.0196L37.0149 6.08929L37.0089 6.08461C36.9707 6.05249 36.9319 6.02238 36.8938 5.9916L36.8904 5.98826C36.768 5.88923 36.6395 5.78752 36.5117 5.69117H36.5084C36.4743 5.66373 36.4415 5.63831 36.4047 5.61154L36.3625 5.57943L36.3371 5.56002L36.3197 5.54664L36.3143 5.54262L36.3097 5.53928H36.3063L36.2996 5.53526L36.228 5.48173L36.2019 5.46233L36.1042 5.39006L36.0735 5.36798L36.0179 5.32784L35.9791 5.29974C35.941 5.27096 35.9022 5.2442 35.8634 5.21676L35.8359 5.19669L35.8252 5.18933L35.8152 5.18197L35.5315 4.98123H35.5275C35.4846 4.95179 35.4425 4.92235 35.399 4.89358L35.3682 4.87217H35.3649C35.298 4.83068 35.2371 4.78786 35.1722 4.7457L35.1615 4.73901L35.1568 4.73567L35.1507 4.73232L35.1099 4.70556L34.9714 4.6159L34.9641 4.61121L34.9574 4.60653C34.8905 4.56103 34.8189 4.51821 34.7479 4.47271L34.7406 4.46869L34.7312 4.46267C34.6603 4.41717 34.588 4.37234 34.5151 4.32884L34.4007 4.26193L34.3478 4.23049L34.2809 4.191H34.2762L34.2361 4.16759L34.0795 4.07726L34.0407 4.05384L33.9871 4.02306C33.939 3.99495 33.8908 3.96685 33.8426 3.94008L33.8286 3.93273C33.5067 3.75274 33.1782 3.57943 32.8476 3.41483L32.8256 3.40346H32.8222L32.8149 3.40011C32.7426 3.36197 32.6697 3.32651 32.5947 3.29238L32.4 3.19938L32.3826 3.19135L32.3712 3.18599H32.3665H32.3619C32.1317 3.07692 31.9209 2.98526 31.7168 2.89626H31.7115H31.7068H31.7021H31.6968C31.6479 2.87418 31.5991 2.85344 31.5489 2.82935L31.5282 2.82132L31.5134 2.81463L31.4251 2.77783L31.3308 2.73969L31.2866 2.72162C31.0678 2.6333 30.8851 2.56238 30.7232 2.50149L30.6242 2.46468L30.6108 2.46L30.5071 2.42119C30.2301 2.32082 29.941 2.22046 29.6513 2.13013H29.6479H29.6446L29.6305 2.12544C29.5757 2.10737 29.5201 2.09065 29.4653 2.07392L29.2953 2.02173L29.1943 1.99095C29.0685 1.95415 28.9487 1.92002 28.8336 1.88791H28.8262H28.8222L28.7754 1.87519L28.7005 1.85512L28.6851 1.85043L28.663 1.84374C28.4241 1.77683 28.1806 1.72196 27.9363 1.66576C27.7925 1.6323 27.6493 1.59884 27.5041 1.5694C27.2605 1.51788 27.017 1.46569 26.768 1.42153C26.6764 1.40547 26.586 1.38941 26.4944 1.37469H26.4897H26.4837C26.3933 1.35863 26.3017 1.34391 26.21 1.33053L26.0829 1.31179L25.9236 1.2877C25.6622 1.25157 25.3997 1.21968 25.1361 1.19202C24.6275 1.13916 24.115 1.1037 23.6024 1.08429C23.3174 1.07359 23.0317 1.06689 22.7466 1.06689C22.2662 1.06689 21.7845 1.08429 21.304 1.1144C21.2532 1.1144 21.203 1.11909 21.1521 1.12243C20.6215 1.15923 20.0923 1.2141 19.569 1.28704L19.288 1.32852H19.2806L0.224828 20.2418L0.222816 20.2512Z" fill="white" style="mix-blend-mode:color"/>
<path d="M45.1185 27.1532V27.1358V27.1177C45.1232 27.0856 45.1279 27.0508 45.1319 27.0213V27.014V27.0019V26.9886C45.1379 26.9471 45.1453 26.9042 45.15 26.8628V26.8347L45.1547 26.8066C45.1547 26.7932 45.158 26.7798 45.1607 26.7677L45.1781 26.6259L45.1915 26.5282C45.2035 26.4339 45.2135 26.3462 45.2236 26.2606V26.2485C45.2336 26.1642 45.2416 26.0846 45.249 26.0043C45.2557 25.9374 45.2624 25.8705 45.2671 25.8109V25.8076L45.2731 25.746C45.2778 25.7012 45.2818 25.657 45.2845 25.6122V25.5948V25.5774C45.2905 25.5198 45.2945 25.4623 45.2979 25.4054V25.3967V25.382C45.3052 25.299 45.3112 25.2114 45.3159 25.1144V25.1083C45.3219 25.0193 45.3266 24.9324 45.332 24.8467V24.8213V24.7858V24.7504C45.3367 24.6781 45.3393 24.6052 45.342 24.5316C45.3454 24.4325 45.3487 24.3388 45.3507 24.2445V24.2325V24.1896C45.3507 24.1227 45.3507 24.0558 45.3507 23.9889V23.912V23.8999C45.3507 23.841 45.3507 23.7828 45.3507 23.7253C45.3507 23.6677 45.3507 23.6015 45.3507 23.5419V23.5372V23.4784C45.2866 19.1816 43.5345 15.0825 40.4731 12.0668C37.4117 9.05105 33.2867 7.36085 28.9895 7.36133C27.9976 7.36162 27.0078 7.45119 26.032 7.62897C30.2911 10.2002 33.3584 14.3539 34.5627 19.1811C35.767 24.0083 35.0102 29.116 32.458 33.3866C29.9057 37.6572 25.7657 40.743 20.944 41.9688C16.1222 43.1945 11.0112 42.4605 6.72925 39.9273L6.73393 39.932L6.74731 39.944L6.75936 39.9561C6.77239 39.9702 6.78624 39.9836 6.80085 39.9962L6.84635 40.0404C6.88315 40.0772 6.91995 40.1126 6.95742 40.1481L6.96344 40.1541L6.9708 40.1608C7.03169 40.2197 7.10463 40.2893 7.17154 40.3535L7.18291 40.3622L7.19228 40.3716C7.23845 40.4157 7.28528 40.4599 7.33279 40.5054L7.33614 40.5088L7.34082 40.5121C7.42245 40.5877 7.50609 40.662 7.59174 40.7369L7.5971 40.7403L7.60178 40.7449L7.76772 40.8915L7.77842 40.8995L7.81523 40.9316H7.81857L7.97983 41.0708L8.01261 41.0989L8.01998 41.1063C8.06347 41.1431 8.10696 41.1799 8.1538 41.2153L8.1712 41.2287L8.18726 41.2434C8.2254 41.2762 8.26822 41.3103 8.31573 41.3485L8.33179 41.3605L8.3465 41.3726C8.38063 41.402 8.41342 41.4301 8.44754 41.4542L8.45892 41.4629L8.46828 41.4709C8.58939 41.5686 8.71519 41.6663 8.84232 41.7633C8.86909 41.7854 8.89719 41.8062 8.92395 41.8302C8.95072 41.8543 8.98618 41.8778 9.0183 41.9012C9.03636 41.9146 9.05376 41.9266 9.06982 41.94L9.1006 41.9621L9.25316 42.0758L9.30067 42.1099L9.37761 42.1648L9.38698 42.1722L9.39836 42.1795C9.43516 42.2076 9.47397 42.2344 9.51211 42.2618L9.55359 42.2913C9.6466 42.3582 9.74162 42.4251 9.83663 42.492L9.84533 42.4967L9.85403 42.5027C9.89551 42.5322 9.93834 42.5603 9.97982 42.5884L10.0119 42.6091L10.117 42.676L10.2281 42.7503C10.2843 42.7871 10.3425 42.8259 10.4027 42.8627C10.4629 42.8995 10.5211 42.9383 10.5787 42.9751H10.7232L10.9808 43.2207C11.0196 43.2454 11.0604 43.2695 11.1006 43.2929C11.1789 43.3391 11.2585 43.386 11.3375 43.4268L11.3448 43.4315L11.3522 43.4361C11.4144 43.4729 11.4766 43.5071 11.5409 43.5425C11.8754 43.7319 12.2153 43.9112 12.5553 44.0778C12.6309 44.116 12.7058 44.1521 12.7801 44.1876L12.8129 44.205C12.8838 44.2377 12.9534 44.2719 13.0243 44.3046C13.2384 44.4043 13.4572 44.5054 13.6707 44.5944H13.6754H13.68L13.84 44.6613C13.856 44.6673 13.8727 44.6747 13.8915 44.6834L14.1056 44.7717C14.2802 44.8426 14.4696 44.9162 14.6677 44.9905H14.6743H14.6804C14.7413 45.0139 14.8028 45.0367 14.8651 45.0574H14.8737H14.8811C15.1708 45.1638 15.4579 45.2581 15.7342 45.3485L15.7443 45.3518H15.753C15.8092 45.3712 15.864 45.3886 15.9202 45.4053H15.9289H15.9363C16.0206 45.4321 16.1049 45.4582 16.1892 45.4836L16.2602 45.5044L16.5619 45.59L16.7178 45.6328H16.7299C17.3555 45.8015 17.9925 45.9433 18.6201 46.0544H18.6275H18.6349C18.7105 46.0678 18.7928 46.0825 18.8951 46.0999H18.9012H18.9058C19.0076 46.1173 19.0912 46.1307 19.1688 46.1414H19.1809H19.1929C19.2812 46.1561 19.3702 46.1681 19.4605 46.1802H19.4679C21.5766 46.4736 23.7158 46.4736 25.8245 46.1802L25.8466 46.1768C25.9309 46.1648 26.0139 46.1534 26.0975 46.14H26.1096H26.1183L45.0938 27.1652C45.1185 27.1746 45.1185 27.1672 45.1185 27.1532Z" fill="white" style="mix-blend-mode:color"/>
<path d="M150.695 8.92383H153.243L158.976 23.6886H156.678L154.995 19.2068H148.67L147.01 23.6886H144.826L150.695 8.92383ZM154.449 17.6826L151.946 11.0168H151.742L149.239 17.6826H154.449Z" fill="white" style="mix-blend-mode:color"/>
<path d="M136.728 10.4708H131.723V8.92383H143.939V10.4708H138.957V23.6886H136.728V10.4708Z" fill="white" style="mix-blend-mode:color"/>
<path d="M127.067 8.92383H129.274V23.6886H127.067V8.92383Z" fill="white" style="mix-blend-mode:color"/>
<path d="M118.369 23.916C117.11 23.916 115.608 23.7947 113.864 23.552V21.7093C115.623 22.0885 117.17 22.278 118.505 22.278C119.627 22.278 120.446 22.1567 120.962 21.914C121.478 21.6562 121.736 21.186 121.736 20.5035V18.5925C121.736 17.9555 121.554 17.5081 121.19 17.2503C120.826 16.9925 120.189 16.8635 119.279 16.8635H117.55C116.109 16.8635 115.085 16.5754 114.478 15.999C113.872 15.4227 113.568 14.5279 113.568 13.3145V12.1315C113.568 11.3277 113.743 10.6755 114.092 10.175C114.456 9.67454 115.055 9.30296 115.889 9.06029C116.738 8.81762 117.898 8.69629 119.37 8.69629C120.355 8.69629 121.622 8.77971 123.169 8.94654V10.6073C121.44 10.3495 120.12 10.2205 119.21 10.2205C117.8 10.2205 116.867 10.357 116.412 10.63C115.942 10.9182 115.707 11.396 115.707 12.0633V13.7468C115.707 14.2625 115.889 14.6416 116.253 14.8843C116.632 15.1118 117.277 15.2255 118.187 15.2255H119.961C120.977 15.2255 121.766 15.3469 122.327 15.5895C122.903 15.8322 123.305 16.2038 123.533 16.7043C123.776 17.1896 123.897 17.8494 123.897 18.6835V19.7528C123.897 20.7993 123.7 21.6259 123.305 22.2325C122.926 22.8392 122.335 23.2715 121.531 23.5293C120.727 23.7871 119.673 23.916 118.369 23.916Z" fill="white" style="mix-blend-mode:color"/>
<path d="M108.094 8.92383H110.3V23.6886H108.094V8.92383Z" fill="white" style="mix-blend-mode:color"/>
<path d="M93.7195 8.92383H98.9065C100.211 8.92383 101.227 9.00725 101.955 9.17408C102.698 9.32575 103.237 9.60633 103.57 10.0158C103.919 10.4253 104.093 11.0244 104.093 11.8131V14.3611C104.093 15.2407 103.729 15.9232 103.001 16.4086C102.289 16.8787 101.379 17.1138 100.271 17.1138L105.003 23.6886H102.296L98.0647 17.3868H95.9262V23.6886H93.7195V8.92383ZM98.8155 15.9308C99.9075 15.9308 100.689 15.8019 101.159 15.5441C101.644 15.2711 101.887 14.7857 101.887 14.0881V12.0406C101.887 10.9334 100.931 10.3798 99.0202 10.3798H95.9262V15.9308H98.8155Z" fill="white" style="mix-blend-mode:color"/>
<path d="M84.0574 23.916C79.9321 23.916 77.8694 22.5814 77.8694 19.912V12.9278C77.8694 10.1068 79.9321 8.69629 84.0574 8.69629C88.2282 8.69629 90.3136 10.0992 90.3136 12.905V19.912C90.3136 21.3377 89.7373 22.3615 88.5846 22.9833C87.432 23.6051 85.9229 23.916 84.0574 23.916ZM84.1029 22.4373C86.8177 22.4373 88.1751 21.588 88.1751 19.8893V12.8595C88.1751 11.0395 86.8101 10.1295 84.0801 10.1295C82.7606 10.1295 81.7445 10.3343 81.0316 10.7438C80.334 11.1533 79.9851 11.8585 79.9851 12.8595V19.8893C79.9851 21.588 81.3577 22.4373 84.1029 22.4373Z" fill="white" style="mix-blend-mode:color"/>
<path d="M58.6836 8.92383H61.9823L66.7143 21.2088L66.7826 21.2316L71.2643 8.92383H74.4493V23.6886H72.5156V11.1988H72.4018L67.6471 23.6886H65.6678L60.7766 11.1988H60.6628V23.6886H58.6836V8.92383Z" fill="white" style="mix-blend-mode:color"/>
<path d="M132.342 34.3984H133.366V35.0695C133.472 34.5463 134.075 34.2847 135.174 34.2847C135.88 34.2847 136.373 34.4136 136.653 34.6714C136.941 34.9217 137.085 35.3198 137.085 35.8658V39.9039H136.062V35.9227C136.062 35.7786 136.05 35.661 136.028 35.57C136.005 35.479 135.959 35.388 135.891 35.297C135.739 35.1075 135.402 35.0127 134.879 35.0127C134.477 35.0127 134.166 35.043 133.946 35.1037C133.734 35.1568 133.582 35.2478 133.491 35.3767C133.408 35.5056 133.366 35.6876 133.366 35.9227V39.9039H132.342V34.3984Z" fill="white" style="mix-blend-mode:color"/>
<path d="M128.209 40.0177C127.724 40.0177 127.36 39.9987 127.117 39.9608C126.874 39.9305 126.632 39.8584 126.389 39.7447C126.139 39.6309 125.957 39.4489 125.843 39.1987C125.729 38.9408 125.672 38.5958 125.672 38.1635V36.2525C125.672 35.9113 125.714 35.6118 125.797 35.3539C125.881 35.0961 125.991 34.8951 126.127 34.751C126.241 34.6221 126.412 34.5235 126.639 34.4553C126.874 34.3795 127.113 34.3302 127.356 34.3074C127.629 34.2923 127.913 34.2847 128.209 34.2847C128.603 34.2847 128.899 34.296 129.096 34.3188C129.301 34.334 129.517 34.3719 129.745 34.4325C129.98 34.5008 130.162 34.6032 130.291 34.7397C130.42 34.8762 130.529 35.0733 130.62 35.3312C130.704 35.5966 130.746 35.9037 130.746 36.2525V38.1635C130.746 38.8081 130.598 39.2783 130.302 39.574C130.181 39.6954 130.006 39.7902 129.779 39.8584C129.551 39.9267 129.316 39.9722 129.073 39.9949C128.785 40.0101 128.497 40.0177 128.209 40.0177ZM128.209 39.3465C128.527 39.3465 128.759 39.339 128.903 39.3238C129.047 39.3086 129.187 39.2669 129.324 39.1987C129.46 39.138 129.555 39.0394 129.608 38.9029C129.669 38.7588 129.699 38.5617 129.699 38.3114V36.0819C129.699 35.7407 129.657 35.4942 129.574 35.3425C129.491 35.1833 129.346 35.0809 129.142 35.0354C128.945 34.9823 128.634 34.9558 128.209 34.9558C127.784 34.9558 127.47 34.9823 127.265 35.0354C127.068 35.0809 126.927 35.1833 126.844 35.3425C126.761 35.4942 126.719 35.7407 126.719 36.0819V38.3114C126.719 38.5617 126.745 38.7588 126.798 38.9029C126.859 39.0394 126.958 39.138 127.094 39.1987C127.231 39.2669 127.371 39.3086 127.515 39.3238C127.659 39.339 127.89 39.3465 128.209 39.3465Z" fill="white" style="mix-blend-mode:color"/>
<path d="M123.078 32.4077H124.101V33.477H123.078V32.4077ZM123.078 34.3983H124.101V39.9038H123.078V34.3983Z" fill="white" style="mix-blend-mode:color"/>
<path d="M120.81 40.0179C120.34 40.0179 119.972 39.9686 119.707 39.87C119.441 39.7638 119.248 39.5894 119.127 39.3468C119.013 39.0965 118.956 38.7477 118.956 38.3003V35.0698H117.728V34.3986H118.956V32.6924H119.991V34.3986H121.959V35.0698H119.991V38.3571C119.991 38.6301 120.021 38.8349 120.082 38.9714C120.15 39.1079 120.264 39.2065 120.423 39.2671C120.59 39.3202 120.829 39.3468 121.14 39.3468C121.239 39.3468 121.512 39.3164 121.959 39.2558V39.9269C121.572 39.9876 121.189 40.0179 120.81 40.0179Z" fill="white" style="mix-blend-mode:color"/>
<path d="M114.075 40.0177C113.552 40.0177 113.146 39.9684 112.858 39.8698C112.577 39.7712 112.373 39.5968 112.244 39.3465C112.122 39.0963 112.062 38.7361 112.062 38.2659C112.062 37.8488 112.119 37.5265 112.232 37.299C112.354 37.064 112.555 36.8971 112.835 36.7985C113.123 36.7 113.529 36.6507 114.052 36.6507H115.702V35.7748C115.702 35.57 115.66 35.4146 115.577 35.3084C115.501 35.1947 115.368 35.115 115.179 35.0695C114.997 35.024 114.727 35.0013 114.371 35.0013C113.802 35.0013 113.173 35.0468 112.483 35.1378V34.387C113.233 34.3188 113.912 34.2847 114.519 34.2847C115.156 34.2847 115.626 34.334 115.929 34.4325C116.233 34.5235 116.441 34.6866 116.555 34.9217C116.669 35.1568 116.726 35.5208 116.726 36.0137V39.9039H115.736V39.3807C115.652 39.8053 115.099 40.0177 114.075 40.0177ZM114.246 39.3465C114.617 39.3465 114.932 39.32 115.19 39.2669C115.531 39.1987 115.702 39.0394 115.702 38.7892V37.2877H114.121C113.795 37.2877 113.559 37.3142 113.415 37.3673C113.271 37.4128 113.177 37.5038 113.131 37.6403C113.086 37.7768 113.063 37.9967 113.063 38.3C113.063 38.573 113.089 38.7854 113.142 38.937C113.195 39.0811 113.29 39.1873 113.427 39.2555C113.563 39.3162 113.768 39.3465 114.041 39.3465H114.246Z" fill="white" style="mix-blend-mode:color"/>
<path d="M108.392 34.3984H109.359V35.297C109.359 35.1226 109.435 34.9596 109.587 34.8079C109.738 34.6487 109.932 34.5235 110.167 34.4325C110.402 34.334 110.633 34.2847 110.861 34.2847H111.361V35.1605H110.792C110.307 35.1605 109.955 35.225 109.735 35.3539C109.522 35.4753 109.416 35.699 109.416 36.025V39.9039H108.392V34.3984Z" fill="white" style="mix-blend-mode:color"/>
<path d="M104.259 40.0177C103.774 40.0177 103.41 39.9987 103.167 39.9608C102.925 39.9305 102.682 39.8584 102.439 39.7447C102.189 39.6309 102.007 39.4489 101.893 39.1987C101.78 38.9408 101.723 38.5958 101.723 38.1635V36.2525C101.723 35.9113 101.764 35.6118 101.848 35.3539C101.931 35.0961 102.041 34.8951 102.178 34.751C102.291 34.6221 102.462 34.5235 102.69 34.4553C102.925 34.3795 103.163 34.3302 103.406 34.3074C103.679 34.2923 103.964 34.2847 104.259 34.2847C104.654 34.2847 104.949 34.296 105.147 34.3188C105.351 34.334 105.567 34.3719 105.795 34.4325C106.03 34.5008 106.212 34.6032 106.341 34.7397C106.47 34.8762 106.58 35.0733 106.671 35.3312C106.754 35.5966 106.796 35.9037 106.796 36.2525V38.1635C106.796 38.8081 106.648 39.2783 106.352 39.574C106.231 39.6954 106.057 39.7902 105.829 39.8584C105.602 39.9267 105.366 39.9722 105.124 39.9949C104.836 40.0101 104.547 40.0177 104.259 40.0177ZM104.259 39.3465C104.578 39.3465 104.809 39.339 104.953 39.3238C105.097 39.3086 105.238 39.2669 105.374 39.1987C105.511 39.138 105.605 39.0394 105.658 38.9029C105.719 38.7588 105.749 38.5617 105.749 38.3114V36.0819C105.749 35.7407 105.708 35.4942 105.624 35.3425C105.541 35.1833 105.397 35.0809 105.192 35.0354C104.995 34.9823 104.684 34.9558 104.259 34.9558C103.835 34.9558 103.52 34.9823 103.315 35.0354C103.118 35.0809 102.978 35.1833 102.894 35.3425C102.811 35.4942 102.769 35.7407 102.769 36.0819V38.3114C102.769 38.5617 102.796 38.7588 102.849 38.9029C102.909 39.0394 103.008 39.138 103.145 39.1987C103.281 39.2669 103.421 39.3086 103.565 39.3238C103.709 39.339 103.941 39.3465 104.259 39.3465Z" fill="white" style="mix-blend-mode:color"/>
<path d="M95.3401 34.3984H96.3525V34.9899H96.3638C96.4473 34.5198 97.0729 34.2847 98.2407 34.2847C98.9384 34.2847 99.4654 34.4325 99.8218 34.7283C100.178 35.0165 100.356 35.388 100.356 35.843V38.1067C100.356 38.4328 100.307 38.7171 100.209 38.9598C100.118 39.2025 99.9963 39.392 99.8446 39.5285C99.7081 39.6575 99.5185 39.7598 99.2758 39.8357C99.0408 39.9115 98.8057 39.9608 98.5706 39.9835C98.3583 40.0063 98.1004 40.0177 97.7971 40.0177C97.4634 40.0177 97.1563 39.9798 96.8757 39.9039C96.6027 39.8205 96.4321 39.703 96.3638 39.5513V42.2699H95.3401V34.3984ZM97.8198 39.3238C98.2142 39.3238 98.5137 39.2973 98.7185 39.2442C98.9308 39.1835 99.0825 39.0773 99.1735 38.9257C99.2645 38.774 99.31 38.5427 99.31 38.2318V36.207C99.31 35.8658 99.2645 35.6118 99.1735 35.4449C99.0825 35.2781 98.9308 35.1681 98.7185 35.115C98.5137 35.0544 98.2104 35.024 97.8085 35.024C97.4065 35.024 97.107 35.0544 96.9098 35.115C96.7127 35.1681 96.5724 35.2781 96.489 35.4449C96.4055 35.6042 96.3638 35.8582 96.3638 36.207V38.2318C96.3638 38.5427 96.4055 38.774 96.489 38.9257C96.58 39.0773 96.7278 39.1835 96.9326 39.2442C97.1373 39.2973 97.4331 39.3238 97.8198 39.3238Z" fill="white" style="mix-blend-mode:color"/>
<path d="M91.3521 34.3984H92.3189V35.297C92.3189 35.1226 92.3948 34.9596 92.5464 34.8079C92.6981 34.6487 92.8915 34.5235 93.1265 34.4325C93.3616 34.334 93.5929 34.2847 93.8204 34.2847H94.3209V35.1605H93.7522C93.2668 35.1605 92.9142 35.225 92.6943 35.3539C92.482 35.4753 92.3758 35.699 92.3758 36.025V39.9039H91.3521V34.3984Z" fill="white" style="mix-blend-mode:color"/>
<path d="M87.219 40.0177C86.7337 40.0177 86.3697 39.9987 86.127 39.9608C85.8843 39.9305 85.6417 39.8584 85.399 39.7447C85.1487 39.6309 84.9667 39.4489 84.853 39.1987C84.7392 38.9408 84.6824 38.5958 84.6824 38.1635V36.2525C84.6824 35.9113 84.7241 35.6118 84.8075 35.3539C84.8909 35.0961 85.0009 34.8951 85.1374 34.751C85.2511 34.6221 85.4217 34.5235 85.6492 34.4553C85.8843 34.3795 86.1232 34.3302 86.3659 34.3074C86.6389 34.2923 86.9232 34.2847 87.219 34.2847C87.6133 34.2847 87.9091 34.296 88.1062 34.3188C88.311 34.334 88.5271 34.3719 88.7546 34.4325C88.9897 34.5008 89.1717 34.6032 89.3006 34.7397C89.4295 34.8762 89.5395 35.0733 89.6305 35.3312C89.7139 35.5966 89.7556 35.9037 89.7556 36.2525V38.1635C89.7556 38.8081 89.6077 39.2783 89.312 39.574C89.1907 39.6954 89.0162 39.7902 88.7887 39.8584C88.5612 39.9267 88.3262 39.9722 88.0835 39.9949C87.7953 40.0101 87.5072 40.0177 87.219 40.0177ZM87.219 39.3465C87.5375 39.3465 87.7688 39.339 87.9129 39.3238C88.057 39.3086 88.1972 39.2669 88.3337 39.1987C88.4702 39.138 88.565 39.0394 88.6181 38.9029C88.6788 38.7588 88.7091 38.5617 88.7091 38.3114V36.0819C88.7091 35.7407 88.6674 35.4942 88.584 35.3425C88.5006 35.1833 88.3565 35.0809 88.1517 35.0354C87.9546 34.9823 87.6437 34.9558 87.219 34.9558C86.7943 34.9558 86.4796 34.9823 86.2749 35.0354C86.0777 35.0809 85.9374 35.1833 85.854 35.3425C85.7706 35.4942 85.7289 35.7407 85.7289 36.0819V38.3114C85.7289 38.5617 85.7554 38.7588 85.8085 38.9029C85.8692 39.0394 85.9677 39.138 86.1042 39.1987C86.2407 39.2669 86.381 39.3086 86.5251 39.3238C86.6692 39.339 86.9005 39.3465 87.219 39.3465Z" fill="white" style="mix-blend-mode:color"/>
<path d="M81.4125 40.0177C79.3423 40.0177 78.3071 39.3504 78.3071 38.0157V34.5122C78.3071 33.1017 79.3423 32.3965 81.4125 32.3965C82.1178 32.3965 82.7927 32.4685 83.4373 32.6126V33.4316C82.7093 33.2496 82.0419 33.1586 81.4353 33.1586C81.1395 33.1586 80.8817 33.1776 80.6618 33.2155C80.4418 33.2458 80.2295 33.3027 80.0248 33.3861C79.5849 33.5757 79.365 33.9473 79.365 34.5009V37.9589C79.365 38.8082 80.0703 39.2329 81.4808 39.2329C82.0874 39.2329 82.7548 39.1419 83.4827 38.9599V39.8016C82.8382 39.9457 82.1481 40.0177 81.4125 40.0177Z" fill="white" style="mix-blend-mode:color"/>
</svg>
