<svg width="159" height="46" viewBox="0 0 159 46" fill="none" xmlns="http://www.w3.org/2000/svg">
<path d="M0.222816 19.1843V19.2057L0.218135 19.2338C0.212113 19.2726 0.20609 19.3121 0.200737 19.3516V19.3582C0.200737 19.3656 0.200737 19.3736 0.200737 19.381C0.200737 19.4044 0.194046 19.4272 0.19137 19.4479L0.182002 19.5095V19.5202V19.5382V19.5476V19.557V19.5617V19.5804V19.5944V19.6038C0.172634 19.6781 0.162598 19.7537 0.153231 19.83C0.143863 19.9063 0.137838 19.9638 0.129809 20.0307C0.129809 20.0568 0.123787 20.0822 0.12111 20.1083V20.1157C0.111742 20.1973 0.103048 20.281 0.0943499 20.3626C0.0883278 20.4235 0.0836433 20.4864 0.0769522 20.5486V20.5546L0.0709283 20.6162C0.0709283 20.6403 0.0669118 20.665 0.0649045 20.6891C0.0628971 20.7132 0.0602243 20.7406 0.058217 20.7667C0.058217 20.7801 0.058217 20.7935 0.058217 20.8069C0.058217 20.8203 0.0548692 20.8464 0.0528619 20.8664L0.0481806 20.9407V20.9755C0.0408203 21.0598 0.034798 21.1481 0.0301142 21.2492V21.2552C0.0301142 21.298 0.0254289 21.3415 0.0234216 21.3843C0.0214142 21.4272 0.0180672 21.4747 0.016729 21.5182V21.5362C0.016729 21.5416 0.016729 21.5463 0.016729 21.5509C0.016729 21.5556 0.016729 21.571 0.016729 21.5817V21.5978V21.6118C0.016729 21.6627 0.0120484 21.7135 0.0107102 21.7644C0.0107102 21.7858 0.0107102 21.8072 0.0107102 21.8313C0.00736462 21.9243 0.00468709 22.0113 0.00334885 22.0989C0.00334885 22.1123 0.00334885 22.1271 0.00334885 22.1418V22.1826C0.00334885 22.2562 0 22.3278 0 22.4014V22.5352C0 22.5573 0 22.5794 0 22.6021C0 22.6249 0 22.6336 0 22.6496C0 22.6657 0 22.6811 0 22.6965C0 22.7119 0 22.74 0 22.7634V22.8356V22.8965C0.0648357 27.1931 1.8171 31.2918 4.87836 34.3074C7.93962 37.3229 12.0642 39.0134 16.3613 39.0136C17.0449 39.0127 17.7278 38.9695 18.4061 38.8844C18.7119 38.8463 19.0163 38.8035 19.3188 38.7506C16.2361 36.8803 13.752 34.1681 12.1592 30.9333C12.0649 30.7406 11.9745 30.5466 11.8869 30.3518C11.8775 30.3304 11.8668 30.3097 11.8568 30.2883C10.547 27.3305 10.021 24.0853 10.3295 20.8653C10.6379 17.6453 11.7704 14.5589 13.6179 11.9036C14.1219 11.1819 14.6754 10.4962 15.2746 9.85142C18.1961 6.7093 22.1035 4.65959 26.3492 4.04189C30.595 3.42419 34.9244 4.27557 38.6201 6.45498C38.6189 6.45315 38.6173 6.45156 38.6154 6.45029L38.5351 6.37134C38.4997 6.33655 38.4629 6.30443 38.4268 6.26763L38.3933 6.23551L38.3846 6.22815V6.2248L38.3792 6.21878C38.3485 6.18934 38.3123 6.15722 38.2802 6.12644C38.2481 6.09566 38.2133 6.05953 38.1752 6.02808L38.1711 6.0234L38.1678 6.01938L38.1591 6.01202L38.141 5.99529C38.1009 5.95715 38.0614 5.92102 38.0213 5.88489L38.0139 5.87753L37.961 5.83003L37.9349 5.8066C37.8767 5.75374 37.8192 5.70155 37.7623 5.6507C37.7054 5.59985 37.6325 5.53695 37.5696 5.48208L37.5074 5.42922C37.4639 5.39175 37.4211 5.35428 37.3736 5.31681L37.2852 5.24321L37.2377 5.20306L37.2023 5.17429L37.1842 5.1589C37.1313 5.11474 37.0812 5.07325 37.0303 5.03311L37.0229 5.02641H37.0196L37.0149 5.0224L37.0089 5.01771C36.9707 4.9856 36.9319 4.95549 36.8938 4.92471L36.8904 4.92136C36.768 4.82233 36.6395 4.72063 36.5117 4.62427H36.5084C36.4743 4.59684 36.4415 4.57141 36.4047 4.54465L36.3625 4.51253L36.3371 4.49313L36.3197 4.47974L36.3143 4.47573L36.3097 4.47239H36.3063L36.2996 4.46837L36.228 4.41484L36.2019 4.39543L36.1042 4.32317L36.0735 4.30109L36.0179 4.26094L35.9791 4.23284C35.941 4.20407 35.9022 4.1773 35.8634 4.14987L35.8359 4.1298L35.8252 4.12244L35.8152 4.11507L35.5315 3.91434H35.5275C35.4846 3.8849 35.4425 3.85546 35.399 3.82669L35.3682 3.80527H35.3649C35.298 3.76379 35.2371 3.72096 35.1722 3.67881L35.1615 3.67212L35.1568 3.66877L35.1507 3.66543L35.1099 3.63866L34.9714 3.549L34.9641 3.54432L34.9574 3.53963C34.8905 3.49413 34.8189 3.45131 34.7479 3.40581L34.7406 3.40179L34.7312 3.39578C34.6603 3.35028 34.588 3.30544 34.5151 3.26195L34.4007 3.19504L34.3478 3.16359L34.2809 3.12411H34.2762L34.2361 3.10069L34.0795 3.01036L34.0407 2.98694L33.9871 2.95616C33.939 2.92806 33.8908 2.89996 33.8426 2.87319L33.8286 2.86583C33.5067 2.68584 33.1782 2.51254 32.8476 2.34794L32.8256 2.33656H32.8222L32.8149 2.33321C32.7426 2.29507 32.6697 2.25961 32.5947 2.22549L32.4 2.13248L32.3826 2.12445L32.3712 2.1191H32.3665H32.3619C32.1317 2.01003 31.9209 1.91836 31.7168 1.82937H31.7115H31.7068H31.7021H31.6968C31.6479 1.80729 31.5991 1.78655 31.5489 1.76246L31.5282 1.75443L31.5134 1.74774L31.4251 1.71093L31.3308 1.67279L31.2866 1.65473C31.0678 1.5664 30.8851 1.49548 30.7232 1.43459L30.6242 1.39779L30.6108 1.3931L30.5071 1.3543C30.2301 1.25393 29.941 1.15356 29.6513 1.06323H29.6479H29.6446L29.6305 1.05854C29.5757 1.04048 29.5201 1.02375 29.4653 1.00703L29.2953 0.954832L29.1943 0.924054C29.0685 0.887253 28.9487 0.853128 28.8336 0.821011H28.8262H28.8222L28.7754 0.808294L28.7005 0.788222L28.6851 0.78354L28.663 0.776848C28.4241 0.709936 28.1806 0.655069 27.9363 0.598863C27.7925 0.565407 27.6493 0.531948 27.5041 0.502507C27.2605 0.450985 27.017 0.398793 26.768 0.354632C26.6764 0.338573 26.586 0.322514 26.4944 0.307794H26.4897H26.4837C26.3933 0.291735 26.3017 0.277018 26.21 0.263636L26.0829 0.2449L25.9236 0.22081C25.6622 0.184678 25.3997 0.152785 25.1361 0.125128C24.6275 0.0722674 24.115 0.0368021 23.6024 0.0173977C23.3174 0.00669183 23.0317 0 22.7466 0C22.2662 0 21.7845 0.0173965 21.304 0.0475068C21.2532 0.0475068 21.203 0.0521913 21.1521 0.0555369C20.6215 0.0923384 20.0923 0.147207 19.569 0.220141L19.288 0.261624H19.2806L0.224828 19.1749L0.222816 19.1843Z" fill="#1E4AA4"/>
<path d="M45.1188 26.0862V26.0688V26.0507C45.1235 26.0186 45.1281 25.9838 45.1322 25.9544V25.947V25.935V25.9216C45.1382 25.8801 45.1455 25.8373 45.1502 25.7958V25.7677L45.1549 25.7396C45.1549 25.7262 45.1582 25.7128 45.1609 25.7008L45.1783 25.5589L45.1917 25.4613C45.2037 25.3669 45.2138 25.2793 45.2238 25.1936V25.1816C45.2339 25.0973 45.2419 25.0176 45.2493 24.9373C45.2559 24.8704 45.2626 24.8035 45.2673 24.744V24.7406L45.2733 24.6791C45.278 24.6342 45.282 24.5901 45.2847 24.5452V24.5278V24.5104C45.2907 24.4529 45.2948 24.3953 45.2981 24.3385V24.3298V24.3151C45.3055 24.2321 45.3115 24.1444 45.3162 24.0474V24.0414C45.3222 23.9524 45.3269 23.8654 45.3322 23.7798V23.7543V23.7189V23.6834C45.3369 23.6111 45.3396 23.5382 45.3423 23.4646C45.3456 23.3656 45.3489 23.2719 45.351 23.1776V23.1655V23.1227C45.351 23.0558 45.351 22.9889 45.351 22.922V22.845V22.833C45.351 22.7741 45.351 22.7159 45.351 22.6583C45.351 22.6008 45.351 22.5345 45.351 22.475V22.4703V22.4114C45.2868 18.1146 43.5348 14.0155 40.4734 10.9998C37.4119 7.9841 33.287 6.2939 28.9897 6.29438C27.9978 6.29467 27.008 6.38424 26.0322 6.56202C30.2914 9.1333 33.3587 13.2869 34.563 18.1141C35.7673 22.9413 35.0105 28.049 32.4582 32.3196C29.9059 36.5902 25.766 39.676 20.9442 40.9018C16.1224 42.1276 11.0114 41.3936 6.72949 38.8603L6.73418 38.865L6.74756 38.8771L6.7596 38.8891C6.77263 38.9033 6.78649 38.9167 6.80109 38.9293L6.84659 38.9734C6.88339 39.0102 6.92019 39.0457 6.95766 39.0811L6.96368 39.0872L6.97104 39.0939C7.03193 39.1527 7.10487 39.2223 7.17178 39.2866L7.18315 39.2953L7.19252 39.3046C7.23869 39.3488 7.28553 39.393 7.33304 39.4385L7.33638 39.4418L7.34107 39.4451C7.4227 39.5208 7.50634 39.595 7.59199 39.67L7.59734 39.6733L7.60202 39.678L7.76796 39.8245L7.77867 39.8326L7.81547 39.8647H7.81881L7.98007 40.0039L8.01286 40.032L8.02022 40.0393C8.06371 40.0761 8.1072 40.1129 8.15404 40.1484L8.17144 40.1618L8.1875 40.1765C8.22564 40.2093 8.26846 40.2434 8.31597 40.2815L8.33203 40.2936L8.34675 40.3056C8.38087 40.3351 8.41366 40.3632 8.44779 40.3873L8.45916 40.396L8.46853 40.404C8.58964 40.5017 8.71544 40.5994 8.84257 40.6964C8.86933 40.7185 8.89743 40.7392 8.9242 40.7633C8.95096 40.7874 8.98642 40.8108 9.01854 40.8342C9.03661 40.8476 9.05401 40.8597 9.07007 40.873L9.10084 40.8951L9.25341 41.0089L9.30091 41.043L9.37786 41.0979L9.38723 41.1052L9.3986 41.1126C9.4354 41.1407 9.47421 41.1675 9.51235 41.1949L9.55384 41.2243C9.64684 41.2912 9.74186 41.3581 9.83688 41.4251L9.84557 41.4297L9.85427 41.4358C9.89575 41.4652 9.93858 41.4933 9.98007 41.5214L10.0122 41.5422L10.1172 41.6091L10.2283 41.6833C10.2845 41.7201 10.3427 41.7589 10.4029 41.7958C10.4632 41.8326 10.5214 41.8714 10.5789 41.9082H10.7235L10.9811 42.1537C11.0199 42.1785 11.0607 42.2026 11.1008 42.226C11.1791 42.2722 11.2587 42.319 11.3377 42.3598L11.3451 42.3645L11.3524 42.3692C11.4147 42.406 11.4769 42.4401 11.5411 42.4756C11.8757 42.6649 12.2156 42.8443 12.5555 43.0109C12.6311 43.049 12.706 43.0851 12.7803 43.1206L12.8131 43.138C12.884 43.1708 12.9536 43.2049 13.0246 43.2377C13.2387 43.3374 13.4575 43.4384 13.6709 43.5274H13.6756H13.6803L13.8402 43.5943C13.8563 43.6004 13.873 43.6077 13.8917 43.6164L14.1058 43.7048C14.2805 43.7757 14.4698 43.8493 14.6679 43.9235H14.6746H14.6806C14.7415 43.947 14.8031 43.9697 14.8653 43.9905H14.874H14.8813C15.1711 44.0968 15.4581 44.1912 15.7345 44.2815L15.7445 44.2849H15.7532C15.8094 44.3043 15.8643 44.3217 15.9205 44.3384H15.9292H15.9366C16.0209 44.3652 16.1052 44.3913 16.1895 44.4167L16.2604 44.4374L16.5622 44.5231L16.7181 44.5659H16.7301C17.3557 44.7345 17.9927 44.8764 18.6204 44.9874H18.6277H18.6351C18.7107 45.0008 18.793 45.0156 18.8954 45.033H18.9014H18.9061C19.0078 45.0504 19.0914 45.0637 19.1691 45.0744H19.1811H19.1931C19.2815 45.0892 19.3705 45.1012 19.4608 45.1132H19.4682C21.5769 45.4067 23.716 45.4067 25.8248 45.1132L25.8468 45.1099C25.9312 45.0979 26.0141 45.0865 26.0978 45.0731H26.1098H26.1185L45.094 26.0983C45.1188 26.1076 45.1188 26.1003 45.1188 26.0862Z" fill="#E5EBF0"/>
<path d="M150.695 7.85668H153.243L158.976 22.6214H156.678L154.995 18.1397H148.67L147.01 22.6214H144.826L150.695 7.85668ZM154.449 16.6154L151.946 9.94968H151.742L149.239 16.6154H154.449Z" fill="#06235E"/>
<path d="M136.728 9.40368H131.723V7.85668H143.939V9.40368H138.957V22.6214H136.728V9.40368Z" fill="#06235E"/>
<path d="M127.067 7.85668H129.274V22.6214H127.067V7.85668Z" fill="#06235E"/>
<path d="M118.369 22.849C117.11 22.849 115.608 22.7276 113.864 22.4849V20.6422C115.623 21.0214 117.17 21.2109 118.505 21.2109C119.627 21.2109 120.446 21.0896 120.962 20.847C121.478 20.5891 121.736 20.1189 121.736 19.4365V17.5254C121.736 16.8884 121.554 16.441 121.19 16.1832C120.826 15.9254 120.189 15.7964 119.279 15.7964H117.55C116.109 15.7964 115.085 15.5083 114.478 14.932C113.872 14.3556 113.568 13.4608 113.568 12.2474V11.0645C113.568 10.2606 113.743 9.60845 114.092 9.10795C114.456 8.60745 115.055 8.23587 115.889 7.9932C116.738 7.75053 117.898 7.6292 119.37 7.6292C120.355 7.6292 121.622 7.71262 123.169 7.87945V9.5402C121.44 9.28237 120.12 9.15345 119.21 9.15345C117.8 9.15345 116.867 9.28995 116.412 9.56295C115.942 9.85112 115.707 10.3289 115.707 10.9962V12.6797C115.707 13.1954 115.889 13.5745 116.253 13.8172C116.632 14.0447 117.277 14.1585 118.187 14.1585H119.961C120.977 14.1585 121.766 14.2798 122.327 14.5225C122.903 14.7651 123.305 15.1367 123.533 15.6372C123.776 16.1225 123.897 16.7823 123.897 17.6165V18.6857C123.897 19.7322 123.7 20.5588 123.305 21.1654C122.926 21.7721 122.335 22.2044 121.531 22.4622C120.727 22.72 119.673 22.849 118.369 22.849Z" fill="#06235E"/>
<path d="M108.094 7.85668H110.3V22.6214H108.094V7.85668Z" fill="#06235E"/>
<path d="M93.7192 7.85668H98.9062C100.211 7.85668 101.227 7.9401 101.955 8.10693C102.698 8.2586 103.236 8.53918 103.57 8.94868C103.919 9.35818 104.093 9.95726 104.093 10.7459V13.2939C104.093 14.1736 103.729 14.8561 103.001 15.3414C102.288 15.8116 101.378 16.0467 100.271 16.0467L105.003 22.6214H102.296L98.0645 16.3197H95.926V22.6214H93.7192V7.85668ZM98.8152 14.8637C99.9072 14.8637 100.688 14.7348 101.158 14.4769C101.644 14.2039 101.886 13.7186 101.886 13.0209V10.9734C101.886 9.86626 100.931 9.31268 99.02 9.31268H95.926V14.8637H98.8152Z" fill="#06235E"/>
<path d="M84.0571 22.849C79.9318 22.849 77.8691 21.5143 77.8691 18.845V11.8607C77.8691 9.0397 79.9318 7.6292 84.0571 7.6292C88.228 7.6292 90.3134 9.03212 90.3134 11.8379V18.845C90.3134 20.2706 89.7371 21.2944 88.5844 21.9162C87.4317 22.538 85.9226 22.849 84.0571 22.849ZM84.1026 21.3702C86.8175 21.3702 88.1749 20.5209 88.1749 18.8222V11.7925C88.1749 9.97245 86.8099 9.06245 84.0799 9.06245C82.7604 9.06245 81.7442 9.2672 81.0314 9.6767C80.3337 10.0862 79.9849 10.7915 79.9849 11.7925V18.8222C79.9849 20.5209 81.3575 21.3702 84.1026 21.3702Z" fill="#06235E"/>
<path d="M58.6836 7.85668H61.9823L66.7143 20.1417L66.7826 20.1644L71.2643 7.85668H74.4493V22.6214H72.5156V10.1317H72.4018L67.6471 22.6214H65.6678L60.7766 10.1317H60.6628V22.6214H58.6836V7.85668Z" fill="#06235E"/>
<path d="M132.342 33.3315H133.366V34.0026C133.472 33.4793 134.075 33.2177 135.175 33.2177C135.88 33.2177 136.373 33.3466 136.653 33.6045C136.942 33.8547 137.086 34.2528 137.086 34.7988V38.837H136.062V34.8557C136.062 34.7116 136.051 34.5941 136.028 34.5031C136.005 34.4121 135.96 34.3211 135.891 34.2301C135.74 34.0405 135.402 33.9457 134.879 33.9457C134.477 33.9457 134.166 33.9761 133.946 34.0367C133.734 34.0898 133.582 34.1808 133.491 34.3097C133.408 34.4386 133.366 34.6206 133.366 34.8557V38.837H132.342V33.3315Z" fill="#06235E"/>
<path d="M128.209 38.9507C127.724 38.9507 127.36 38.9318 127.117 38.8938C126.874 38.8635 126.632 38.7915 126.389 38.6777C126.139 38.564 125.957 38.382 125.843 38.1317C125.729 37.8739 125.672 37.5288 125.672 37.0966V35.1856C125.672 34.8443 125.714 34.5448 125.797 34.287C125.881 34.0291 125.991 33.8282 126.127 33.6841C126.241 33.5552 126.412 33.4566 126.639 33.3883C126.874 33.3125 127.113 33.2632 127.356 33.2405C127.629 33.2253 127.913 33.2177 128.209 33.2177C128.603 33.2177 128.899 33.2291 129.096 33.2518C129.301 33.267 129.517 33.3049 129.745 33.3656C129.98 33.4338 130.162 33.5362 130.291 33.6727C130.42 33.8092 130.529 34.0064 130.62 34.2642C130.704 34.5296 130.746 34.8368 130.746 35.1856V37.0966C130.746 37.7412 130.598 38.2113 130.302 38.5071C130.181 38.6284 130.006 38.7232 129.779 38.7915C129.551 38.8597 129.316 38.9052 129.073 38.928C128.785 38.9431 128.497 38.9507 128.209 38.9507ZM128.209 38.2796C128.527 38.2796 128.759 38.272 128.903 38.2568C129.047 38.2417 129.187 38.2 129.324 38.1317C129.46 38.0711 129.555 37.9725 129.608 37.836C129.669 37.6919 129.699 37.4947 129.699 37.2445V35.015C129.699 34.6737 129.657 34.4273 129.574 34.2756C129.491 34.1163 129.346 34.014 129.142 33.9685C128.945 33.9154 128.634 33.8888 128.209 33.8888C127.784 33.8888 127.47 33.9154 127.265 33.9685C127.068 34.014 126.927 34.1163 126.844 34.2756C126.761 34.4273 126.719 34.6737 126.719 35.015V37.2445C126.719 37.4947 126.745 37.6919 126.798 37.836C126.859 37.9725 126.958 38.0711 127.094 38.1317C127.231 38.2 127.371 38.2417 127.515 38.2568C127.659 38.272 127.89 38.2796 128.209 38.2796Z" fill="#06235E"/>
<path d="M123.078 31.3408H124.101V32.4101H123.078V31.3408ZM123.078 33.3314H124.101V38.8369H123.078V33.3314Z" fill="#06235E"/>
<path d="M120.81 38.9507C120.34 38.9507 119.972 38.9014 119.707 38.8028C119.441 38.6967 119.248 38.5223 119.127 38.2796C119.013 38.0293 118.956 37.6805 118.956 37.2331V34.0026H117.728V33.3315H118.956V31.6252H119.991V33.3315H121.959V34.0026H119.991V37.29C119.991 37.563 120.021 37.7677 120.082 37.9042C120.15 38.0407 120.264 38.1393 120.423 38.2C120.59 38.253 120.829 38.2796 121.14 38.2796C121.239 38.2796 121.512 38.2493 121.959 38.1886V38.8597C121.572 38.9204 121.189 38.9507 120.81 38.9507Z" fill="#06235E"/>
<path d="M114.075 38.9507C113.552 38.9507 113.146 38.9014 112.858 38.8028C112.578 38.7043 112.373 38.5298 112.244 38.2796C112.123 38.0293 112.062 37.6691 112.062 37.199C112.062 36.7819 112.119 36.4596 112.233 36.2321C112.354 35.997 112.555 35.8302 112.836 35.7316C113.124 35.633 113.529 35.5837 114.053 35.5837H115.702V34.7078C115.702 34.5031 115.66 34.3476 115.577 34.2415C115.501 34.1277 115.368 34.0481 115.179 34.0026C114.997 33.9571 114.728 33.9343 114.371 33.9343C113.802 33.9343 113.173 33.9798 112.483 34.0708V33.3201C113.234 33.2518 113.912 33.2177 114.519 33.2177C115.156 33.2177 115.626 33.267 115.93 33.3656C116.233 33.4566 116.441 33.6196 116.555 33.8547C116.669 34.0898 116.726 34.4538 116.726 34.9467V38.837H115.736V38.3137C115.653 38.7384 115.099 38.9507 114.075 38.9507ZM114.246 38.2796C114.618 38.2796 114.932 38.2531 115.19 38.2C115.531 38.1317 115.702 37.9725 115.702 37.7222V36.2207H114.121C113.795 36.2207 113.56 36.2473 113.416 36.3003C113.272 36.3458 113.177 36.4368 113.131 36.5733C113.086 36.7098 113.063 36.9298 113.063 37.2331C113.063 37.5061 113.09 37.7184 113.143 37.8701C113.196 38.0142 113.291 38.1203 113.427 38.1886C113.564 38.2493 113.768 38.2796 114.041 38.2796H114.246Z" fill="#06235E"/>
<path d="M108.393 33.3315H109.359V34.2301C109.359 34.0557 109.435 33.8926 109.587 33.741C109.739 33.5817 109.932 33.4566 110.167 33.3656C110.402 33.267 110.633 33.2177 110.861 33.2177H111.361V34.0936H110.793C110.307 34.0936 109.955 34.1581 109.735 34.287C109.522 34.4083 109.416 34.632 109.416 34.9581V38.837H108.393V33.3315Z" fill="#06235E"/>
<path d="M104.259 38.9507C103.774 38.9507 103.41 38.9318 103.167 38.8938C102.925 38.8635 102.682 38.7915 102.439 38.6777C102.189 38.564 102.007 38.382 101.893 38.1317C101.78 37.8739 101.723 37.5288 101.723 37.0966V35.1856C101.723 34.8443 101.764 34.5448 101.848 34.287C101.931 34.0291 102.041 33.8282 102.178 33.6841C102.291 33.5552 102.462 33.4566 102.69 33.3883C102.925 33.3125 103.163 33.2632 103.406 33.2405C103.679 33.2253 103.964 33.2177 104.259 33.2177C104.654 33.2177 104.949 33.2291 105.147 33.2518C105.351 33.267 105.567 33.3049 105.795 33.3656C106.03 33.4338 106.212 33.5362 106.341 33.6727C106.47 33.8092 106.58 34.0064 106.671 34.2642C106.754 34.5296 106.796 34.8368 106.796 35.1856V37.0966C106.796 37.7412 106.648 38.2113 106.352 38.5071C106.231 38.6284 106.057 38.7232 105.829 38.7915C105.602 38.8597 105.366 38.9052 105.124 38.928C104.836 38.9431 104.547 38.9507 104.259 38.9507ZM104.259 38.2796C104.578 38.2796 104.809 38.272 104.953 38.2568C105.097 38.2417 105.238 38.2 105.374 38.1317C105.511 38.0711 105.605 37.9725 105.658 37.836C105.719 37.6919 105.749 37.4947 105.749 37.2445V35.015C105.749 34.6737 105.708 34.4273 105.624 34.2756C105.541 34.1163 105.397 34.014 105.192 33.9685C104.995 33.9154 104.684 33.8888 104.259 33.8888C103.835 33.8888 103.52 33.9154 103.315 33.9685C103.118 34.014 102.978 34.1163 102.894 34.2756C102.811 34.4273 102.769 34.6737 102.769 35.015V37.2445C102.769 37.4947 102.796 37.6919 102.849 37.836C102.909 37.9725 103.008 38.0711 103.145 38.1317C103.281 38.2 103.421 38.2417 103.565 38.2568C103.709 38.272 103.941 38.2796 104.259 38.2796Z" fill="#06235E"/>
<path d="M95.3398 33.3315H96.3522V33.923H96.3636C96.447 33.4528 97.0726 33.2177 98.2405 33.2177C98.9381 33.2177 99.4652 33.3656 99.8216 33.6613C100.178 33.9495 100.356 34.3211 100.356 34.7761V37.0397C100.356 37.3658 100.307 37.6502 100.208 37.8928C100.117 38.1355 99.996 38.3251 99.8443 38.4616C99.7078 38.5905 99.5183 38.6929 99.2756 38.7687C99.0405 38.8446 98.8054 38.8938 98.5703 38.9166C98.358 38.9393 98.1002 38.9507 97.7968 38.9507C97.4632 38.9507 97.1561 38.9128 96.8755 38.837C96.6025 38.7536 96.4318 38.636 96.3636 38.4843V41.203H95.3398V33.3315ZM97.8196 38.2568C98.2139 38.2568 98.5135 38.2303 98.7182 38.1772C98.9305 38.1166 99.0822 38.0104 99.1732 37.8587C99.2642 37.7071 99.3097 37.4758 99.3097 37.1648V35.1401C99.3097 34.7988 99.2642 34.5448 99.1732 34.378C99.0822 34.2111 98.9305 34.1012 98.7182 34.0481C98.5135 33.9874 98.2101 33.9571 97.8082 33.9571C97.4063 33.9571 97.1068 33.9874 96.9096 34.0481C96.7124 34.1012 96.5721 34.2111 96.4887 34.378C96.4053 34.5372 96.3636 34.7913 96.3636 35.1401V37.1648C96.3636 37.4758 96.4053 37.7071 96.4887 37.8587C96.5797 38.0104 96.7276 38.1166 96.9323 38.1772C97.1371 38.2303 97.4328 38.2568 97.8196 38.2568Z" fill="#06235E"/>
<path d="M91.3521 33.3315H92.3189V34.2301C92.3189 34.0557 92.3948 33.8926 92.5464 33.741C92.6981 33.5817 92.8915 33.4566 93.1265 33.3656C93.3616 33.267 93.5929 33.2177 93.8204 33.2177H94.3209V34.0936H93.7522C93.2668 34.0936 92.9142 34.1581 92.6943 34.287C92.482 34.4083 92.3758 34.632 92.3758 34.9581V38.837H91.3521V33.3315Z" fill="#06235E"/>
<path d="M87.2188 38.9507C86.7334 38.9507 86.3694 38.9318 86.1268 38.8938C85.8841 38.8635 85.6414 38.7915 85.3988 38.6777C85.1485 38.564 84.9665 38.382 84.8528 38.1317C84.739 37.8739 84.6821 37.5288 84.6821 37.0966V35.1856C84.6821 34.8443 84.7238 34.5448 84.8073 34.287C84.8907 34.0291 85.0006 33.8282 85.1371 33.6841C85.2509 33.5552 85.4215 33.4566 85.649 33.3883C85.8841 33.3125 86.123 33.2632 86.3656 33.2405C86.6386 33.2253 86.923 33.2177 87.2188 33.2177C87.6131 33.2177 87.9088 33.2291 88.106 33.2518C88.3108 33.267 88.5269 33.3049 88.7544 33.3656C88.9895 33.4338 89.1715 33.5362 89.3004 33.6727C89.4293 33.8092 89.5393 34.0064 89.6303 34.2642C89.7137 34.5296 89.7554 34.8368 89.7554 35.1856V37.0966C89.7554 37.7412 89.6075 38.2113 89.3118 38.5071C89.1904 38.6284 89.016 38.7232 88.7885 38.7915C88.561 38.8597 88.3259 38.9052 88.0833 38.928C87.7951 38.9431 87.5069 38.9507 87.2188 38.9507ZM87.2188 38.2796C87.5373 38.2796 87.7685 38.272 87.9126 38.2568C88.0567 38.2417 88.197 38.2 88.3335 38.1317C88.47 38.0711 88.5648 37.9725 88.6179 37.836C88.6785 37.6919 88.7089 37.4947 88.7089 37.2445V35.015C88.7089 34.6737 88.6672 34.4273 88.5838 34.2756C88.5003 34.1163 88.3563 34.014 88.1515 33.9685C87.9543 33.9154 87.6434 33.8888 87.2188 33.8888C86.7941 33.8888 86.4794 33.9154 86.2746 33.9685C86.0775 34.014 85.9372 34.1163 85.8538 34.2756C85.7703 34.4273 85.7286 34.6737 85.7286 35.015V37.2445C85.7286 37.4947 85.7552 37.6919 85.8083 37.836C85.8689 37.9725 85.9675 38.0711 86.104 38.1317C86.2405 38.2 86.3808 38.2417 86.5249 38.2568C86.669 38.272 86.9003 38.2796 87.2188 38.2796Z" fill="#06235E"/>
<path d="M81.4125 38.9507C79.3423 38.9507 78.3071 38.2834 78.3071 36.9487V33.4452C78.3071 32.0347 79.3423 31.3294 81.4125 31.3294C82.1178 31.3294 82.7927 31.4015 83.4373 31.5456V32.3646C82.7093 32.1826 82.0419 32.0916 81.4353 32.0916C81.1395 32.0916 80.8817 32.1105 80.6618 32.1484C80.4418 32.1788 80.2295 32.2356 80.0248 32.3191C79.5849 32.5086 79.365 32.8802 79.365 33.4338V36.8918C79.365 37.7411 80.0703 38.1658 81.4808 38.1658C82.0874 38.1658 82.7548 38.0748 83.4827 37.8928V38.7346C82.8382 38.8786 82.1481 38.9507 81.4125 38.9507Z" fill="#06235E"/>
</svg>
