<svg width="2072" height="118" viewBox="0 0 2072 118" fill="none" xmlns="http://www.w3.org/2000/svg">
<path opacity="0.0713275" d="M48.0483 117.92C16.0163 117.92 0.00032866 107.595 0.00032866 86.9439V32.7359C0.00032866 10.9119 16.0163 -9.25064e-05 48.0483 -9.25064e-05C58.9603 -9.25064e-05 69.403 1.11457 79.3763 3.34391V16.0159C68.1123 13.1999 57.787 11.7919 48.4003 11.7919C43.8243 11.7919 39.835 12.0852 36.4323 12.6719C33.0297 13.1412 29.7443 14.0212 26.5763 15.3119C19.771 18.2452 16.3683 23.9946 16.3683 32.5599V86.0639C16.3683 99.2052 27.2803 105.776 49.1043 105.776C58.491 105.776 68.8163 104.368 80.0803 101.552V114.576C70.107 116.805 59.4297 117.92 48.0483 117.92ZM147.568 117.92C115.653 117.92 99.6961 107.595 99.6961 86.9439V32.9119C99.6961 11.0879 115.653 0.175905 147.568 0.175905C179.835 0.175905 195.968 11.0292 195.968 32.7359V86.9439C195.968 97.9732 191.509 105.893 182.592 110.704C173.675 115.515 162 117.92 147.568 117.92ZM147.92 106.48C168.923 106.48 179.424 99.9092 179.424 86.7679V32.3839C179.424 18.3039 168.864 11.2639 147.744 11.2639C137.536 11.2639 129.675 12.8479 124.16 16.0159C118.763 19.1839 116.064 24.6399 116.064 32.3839V86.7679C116.064 99.9092 126.683 106.48 147.92 106.48ZM222.317 1.9359H242.909L305.037 96.2719V1.9359H319.997V116.16H299.405L237.277 20.2399V116.16H222.317V1.9359ZM377.665 13.9039H338.945V1.9359H433.457V13.9039H394.913V116.16H377.665V13.9039ZM485.722 1.9359H505.434L549.786 116.16H532.01L518.986 81.4879H470.058L457.21 116.16H440.314L485.722 1.9359ZM514.762 69.6959L495.402 18.1279H493.818L474.458 69.6959H514.762ZM611.798 117.92C579.766 117.92 563.75 107.595 563.75 86.9439V32.7359C563.75 10.9119 579.766 -9.25064e-05 611.798 -9.25064e-05C622.71 -9.25064e-05 633.153 1.11457 643.126 3.34391V16.0159C631.862 13.1999 621.537 11.7919 612.15 11.7919C607.574 11.7919 603.585 12.0852 600.182 12.6719C596.78 13.1412 593.494 14.0212 590.326 15.3119C583.521 18.2452 580.118 23.9946 580.118 32.5599V86.0639C580.118 99.2052 591.03 105.776 612.854 105.776C622.241 105.776 632.566 104.368 643.83 101.552V114.576C633.857 116.805 623.18 117.92 611.798 117.92ZM694.774 13.9039H656.054V1.9359H750.566V13.9039H712.022V116.16H694.774V13.9039ZM854.658 117.92C848.439 117.92 842.983 117.509 838.29 116.688C833.714 115.867 829.196 114.459 824.738 112.464C820.044 110.352 816.407 107.125 813.826 102.784C811.362 98.4426 810.13 93.1626 810.13 86.9439V1.9359H826.498V86.7679C826.498 93.9252 828.903 99.0292 833.714 102.08C838.524 105.013 845.623 106.48 855.01 106.48C864.396 106.48 871.378 105.013 875.954 102.08C880.647 99.0292 882.994 93.9252 882.994 86.7679V1.9359H899.362V86.9439C899.362 107.595 884.46 117.92 854.658 117.92ZM961.979 117.92C952.241 117.92 940.625 116.981 927.131 115.104V100.848C940.742 103.781 952.71 105.248 963.035 105.248C971.718 105.248 978.054 104.309 982.043 102.432C986.033 100.437 988.027 96.7999 988.027 91.5199V76.7359C988.027 71.8079 986.619 68.3466 983.803 66.3519C980.987 64.3572 976.059 63.3599 969.019 63.3599H955.643C944.497 63.3599 936.577 61.1306 931.883 56.6719C927.19 52.2132 924.843 45.2906 924.843 35.9039V26.7519C924.843 20.5332 926.193 15.4879 928.891 11.6159C931.707 7.74391 936.342 4.86924 942.795 2.99191C949.366 1.11457 958.342 0.175905 969.723 0.175905C977.35 0.175905 987.147 0.821241 999.115 2.11191V14.9599C985.739 12.9652 975.531 11.9679 968.491 11.9679C957.579 11.9679 950.363 13.0239 946.843 15.1359C943.206 17.3652 941.387 21.0612 941.387 26.2239V39.2479C941.387 43.2372 942.795 46.1706 945.611 48.0479C948.545 49.8079 953.531 50.6879 960.571 50.6879H974.299C982.161 50.6879 988.262 51.6266 992.603 53.5039C997.062 55.3812 1000.17 58.2559 1001.93 62.1279C1003.81 65.8826 1004.75 70.9866 1004.75 77.4399V85.7119C1004.75 93.8079 1003.22 100.203 1000.17 104.896C997.238 109.589 992.662 112.933 986.443 114.928C980.225 116.923 972.07 117.92 961.979 117.92ZM1114.36 117.92C1082.33 117.92 1066.31 107.595 1066.31 86.9439V32.7359C1066.31 10.9119 1082.33 -9.25064e-05 1114.36 -9.25064e-05C1125.27 -9.25064e-05 1135.72 1.11457 1145.69 3.34391V16.0159C1134.42 13.1999 1124.1 11.7919 1114.71 11.7919C1110.14 11.7919 1106.15 12.0852 1102.74 12.6719C1099.34 13.1412 1096.06 14.0212 1092.89 15.3119C1086.08 18.2452 1082.68 23.9946 1082.68 32.5599V86.0639C1082.68 99.2052 1093.59 105.776 1115.42 105.776C1124.8 105.776 1135.13 104.368 1146.39 101.552V114.576C1136.42 116.805 1125.74 117.92 1114.36 117.92ZM1213.88 117.92C1181.97 117.92 1166.01 107.595 1166.01 86.9439V32.9119C1166.01 11.0879 1181.97 0.175905 1213.88 0.175905C1246.15 0.175905 1262.28 11.0292 1262.28 32.7359V86.9439C1262.28 97.9732 1257.82 105.893 1248.9 110.704C1239.99 115.515 1228.31 117.92 1213.88 117.92ZM1214.23 106.48C1235.24 106.48 1245.74 99.9092 1245.74 86.7679V32.3839C1245.74 18.3039 1235.18 11.2639 1214.06 11.2639C1203.85 11.2639 1195.99 12.8479 1190.47 16.0159C1185.08 19.1839 1182.38 24.6399 1182.38 32.3839V86.7679C1182.38 99.9092 1193 106.48 1214.23 106.48ZM1288.63 1.9359H1309.22L1371.35 96.2719V1.9359H1386.31V116.16H1365.72L1303.59 20.2399V116.16H1288.63V1.9359ZM1443.98 13.9039H1405.26V1.9359H1499.77V13.9039H1461.23V116.16H1443.98V13.9039ZM1552.03 1.9359H1571.75L1616.1 116.16H1598.32L1585.3 81.4879H1536.37L1523.52 116.16H1506.63L1552.03 1.9359ZM1581.07 69.6959L1561.71 18.1279H1560.13L1540.77 69.6959H1581.07ZM1678.11 117.92C1646.08 117.92 1630.06 107.595 1630.06 86.9439V32.7359C1630.06 10.9119 1646.08 -9.25064e-05 1678.11 -9.25064e-05C1689.02 -9.25064e-05 1699.47 1.11457 1709.44 3.34391V16.0159C1698.17 13.1999 1687.85 11.7919 1678.46 11.7919C1673.89 11.7919 1669.9 12.0852 1666.49 12.6719C1663.09 13.1412 1659.81 14.0212 1656.64 15.3119C1649.83 18.2452 1646.43 23.9946 1646.43 32.5599V86.0639C1646.43 99.2052 1657.34 105.776 1679.17 105.776C1688.55 105.776 1698.88 104.368 1710.14 101.552V114.576C1700.17 116.805 1689.49 117.92 1678.11 117.92ZM1761.09 13.9039H1722.37V1.9359H1816.88V13.9039H1778.33V116.16H1761.09V13.9039ZM1920.97 117.92C1914.75 117.92 1909.3 117.509 1904.6 116.688C1900.03 115.867 1895.51 114.459 1891.05 112.464C1886.36 110.352 1882.72 107.125 1880.14 102.784C1877.67 98.4426 1876.44 93.1626 1876.44 86.9439V1.9359H1892.81V86.7679C1892.81 93.9252 1895.22 99.0292 1900.03 102.08C1904.84 105.013 1911.94 106.48 1921.32 106.48C1930.71 106.48 1937.69 105.013 1942.27 102.08C1946.96 99.0292 1949.31 93.9252 1949.31 86.7679V1.9359H1965.67V86.9439C1965.67 107.595 1950.77 117.92 1920.97 117.92ZM2028.29 117.92C2018.55 117.92 2006.94 116.981 1993.44 115.104V100.848C2007.05 103.781 2019.02 105.248 2029.35 105.248C2038.03 105.248 2044.37 104.309 2048.36 102.432C2052.35 100.437 2054.34 96.7999 2054.34 91.5199V76.7359C2054.34 71.8079 2052.93 68.3466 2050.12 66.3519C2047.3 64.3572 2042.37 63.3599 2035.33 63.3599H2021.96C2010.81 63.3599 2002.89 61.1306 1998.2 56.6719C1993.5 52.2132 1991.16 45.2906 1991.16 35.9039V26.7519C1991.16 20.5332 1992.51 15.4879 1995.2 11.6159C1998.02 7.74391 2002.65 4.86924 2009.11 2.99191C2015.68 1.11457 2024.65 0.175905 2036.04 0.175905C2043.66 0.175905 2053.46 0.821241 2065.43 2.11191V14.9599C2052.05 12.9652 2041.84 11.9679 2034.8 11.9679C2023.89 11.9679 2016.68 13.0239 2013.16 15.1359C2009.52 17.3652 2007.7 21.0612 2007.7 26.2239V39.2479C2007.7 43.2372 2009.11 46.1706 2011.92 48.0479C2014.86 49.8079 2019.84 50.6879 2026.88 50.6879H2040.61C2048.47 50.6879 2054.57 51.6266 2058.92 53.5039C2063.37 55.3812 2066.48 58.2559 2068.24 62.1279C2070.12 65.8826 2071.06 70.9866 2071.06 77.4399V85.7119C2071.06 93.8079 2069.53 100.203 2066.48 104.896C2063.55 109.589 2058.97 112.933 2052.76 114.928C2046.54 116.923 2038.38 117.92 2028.29 117.92Z" fill="#1E4AA4"/>
</svg>
